<?xml version="1.0" standalone="no"?>
<!DOCTYPE svg PUBLIC "-//W3C//DTD SVG 20010904//EN"
 "http://www.w3.org/TR/2001/REC-SVG-20010904/DTD/svg10.dtd">
<svg version="1.0" xmlns="http://www.w3.org/2000/svg"
 width="810.000000pt" height="810.000000pt" viewBox="0 0 810.000000 810.000000"
 preserveAspectRatio="xMidYMid meet">
<metadata>
Created by potrace 1.14, written by Peter Selinger 2001-2017
</metadata>
<g transform="translate(0.000000,810.000000) scale(0.100000,-0.100000)"
fill="#000000" stroke="none">
<path d="M6562 6838 c-7 -7 -12 -25 -12 -40 0 -15 -4 -28 -10 -28 -5 0 -7 -7
-4 -15 4 -8 2 -15 -3 -15 -5 0 -9 -8 -9 -17 -2 -35 -13 -75 -26 -91 -11 -13
-11 -15 2 -8 8 4 7 1 -4 -8 -10 -8 -15 -19 -11 -25 3 -6 1 -11 -4 -11 -6 0
-11 -7 -11 -16 0 -8 -4 -13 -9 -10 -5 3 -12 -1 -15 -10 -3 -8 -10 -12 -16 -9
-5 3 -10 -1 -10 -9 0 -9 -6 -16 -13 -16 -7 0 -19 -8 -28 -17 -15 -18 -49 -45
-79 -63 -13 -8 -12 -12 4 -27 10 -10 16 -13 13 -7 -4 7 14 10 54 10 32 -1 59
-4 59 -7 0 -4 14 -6 30 -5 17 1 30 -2 30 -7 0 -4 5 -5 10 -2 6 3 10 1 10 -5 0
-7 7 -9 16 -6 10 4 13 2 8 -6 -5 -7 -2 -9 9 -5 11 4 14 2 11 -7 -6 -17 27 -31
36 -16 5 8 9 6 13 -5 4 -9 3 -13 -3 -10 -19 12 -10 -16 13 -38 21 -22 60 -76
63 -87 8 -39 18 -58 28 -54 7 3 13 10 14 17 3 37 24 130 40 185 6 17 8 32 6
32 -7 0 17 29 64 77 24 25 72 57 105 73 34 16 58 30 52 30 -5 0 -3 5 5 10 8 5
11 10 5 11 -5 0 -19 2 -29 4 -10 2 -42 5 -70 6 -82 4 -145 27 -185 68 -23 25
-94 129 -97 144 -1 4 -3 10 -4 15 -1 4 -2 11 -1 15 1 5 -3 6 -9 2 -5 -3 -10
-1 -10 4 0 14 -13 14 -28 -1z"/>
<path d="M7220 6521 c0 -11 -5 -32 -12 -48 -6 -15 -12 -32 -13 -38 -1 -5 -3
-13 -5 -17 -1 -5 -3 -11 -4 -15 -6 -26 -39 -73 -63 -88 -15 -10 -35 -26 -43
-35 -8 -9 -22 -19 -30 -23 -10 -4 -11 -6 -2 -6 7 -1 11 -4 9 -8 -3 -5 11 -8
31 -9 62 -1 93 -12 120 -41 14 -15 30 -27 35 -25 5 1 6 -2 3 -7 -4 -5 -2 -12
4 -16 6 -4 8 -10 5 -15 -3 -4 2 -13 10 -20 8 -7 13 -16 10 -20 -3 -5 -1 -11 5
-15 6 -4 8 -11 5 -16 -4 -5 -1 -9 5 -9 7 0 9 -7 5 -17 -4 -13 -3 -15 4 -8 6 6
14 33 17 60 7 63 30 134 52 160 19 23 82 69 82 61 0 -3 9 2 20 11 11 9 18 19
16 21 -2 2 -34 10 -72 17 -77 17 -93 30 -139 119 -33 62 -55 81 -55 47z"/>
<path d="M4138 6439 c7 -9 9 -25 5 -34 -5 -14 -3 -16 8 -10 11 6 12 5 2 -6
-20 -20 -15 -31 6 -17 15 9 17 16 9 31 -5 10 -7 21 -4 25 3 3 6 0 6 -5 0 -6
11 -10 24 -9 14 2 30 0 37 -5 14 -8 41 -1 34 10 -2 4 2 8 10 8 12 0 12 -4 -2
-19 -9 -10 -23 -16 -30 -14 -7 3 -15 1 -18 -4 -3 -5 2 -11 10 -13 11 -4 10 -4
-2 -3 -10 1 -17 8 -16 17 2 9 -5 15 -17 15 -12 0 -19 -5 -16 -12 3 -7 -6 -20
-20 -29 -21 -14 -25 -14 -30 -1 -5 13 -12 11 -45 -9 -45 -29 -53 -31 -45 -9 4
9 1 24 -6 32 -9 11 -9 14 -1 9 6 -4 14 -3 18 3 4 6 11 7 17 4 7 -4 8 -2 4 4
-4 7 1 10 14 7 13 -3 18 0 14 7 -4 7 -2 8 5 4 6 -4 9 -12 5 -17 -3 -6 -8 -8
-11 -5 -6 6 -43 -25 -43 -36 0 -5 13 -2 30 7 30 16 56 51 43 58 -30 14 -118
-25 -109 -49 8 -22 -19 -57 -46 -60 -13 -2 -17 0 -10 2 17 8 5 24 -13 18 -8
-4 -12 -11 -8 -18 3 -6 1 -6 -8 2 -18 17 -34 15 -20 -2 8 -10 9 -16 1 -21 -6
-4 -9 -1 -8 6 2 6 -2 13 -9 16 -8 3 -11 -3 -8 -16 4 -21 -10 -38 -19 -23 -4 7
-68 9 -97 3 -12 -2 -5 -30 9 -36 10 -3 12 0 8 10 -3 8 -1 15 4 15 11 0 13 -23
4 -33 -10 -9 -46 12 -39 24 4 5 1 9 -4 9 -6 0 -11 -6 -11 -14 0 -25 -18 -27
-39 -5 l-19 21 -14 -21 c-7 -12 -17 -21 -22 -21 -4 0 -3 6 3 14 7 9 8 17 2 20
-5 3 -11 1 -13 -6 -2 -6 -25 -12 -51 -13 -42 -2 -51 1 -74 29 -15 17 -24 23
-20 14 4 -12 2 -18 -8 -18 -8 0 -12 8 -10 18 2 12 -4 18 -18 20 -17 1 -19 -1
-7 -8 8 -5 15 -15 16 -22 3 -41 4 -41 24 -23 17 16 20 16 15 3 -9 -23 -35 -31
-41 -13 -4 8 -11 12 -16 9 -6 -4 -8 1 -4 14 4 13 1 22 -9 26 -9 3 -13 2 -10
-3 3 -5 1 -12 -4 -15 -5 -4 -12 -2 -15 3 -4 5 -14 8 -24 7 -9 -2 -20 2 -24 8
-5 8 -8 7 -8 -2 0 -7 -5 -10 -10 -7 -6 4 -7 11 -4 17 4 7 2 8 -5 4 -6 -4 -9
-11 -6 -16 3 -5 -8 -15 -25 -23 -31 -16 -43 -5 -14 11 15 8 15 10 0 15 -9 4
-15 2 -13 -5 1 -6 -4 -13 -12 -16 -9 -3 -11 0 -6 8 5 9 4 11 -4 6 -9 -6 -9
-11 -1 -21 7 -8 8 -20 4 -27 -8 -12 -10 -17 -13 -36 0 -4 -11 -8 -23 -9 -22
-2 -22 -1 2 13 l25 15 -25 -6 c-24 -6 -24 -5 3 10 32 18 32 19 10 36 -17 13
-17 13 -3 -5 14 -18 13 -19 -3 -13 -11 4 -16 3 -12 -3 3 -6 -1 -10 -10 -10
-13 0 -14 4 -5 20 8 16 8 18 -4 14 -9 -3 -14 -11 -13 -17 1 -6 -2 -11 -8 -12
-22 -1 -32 -16 -30 -44 1 -17 -2 -28 -6 -26 -4 3 -10 -2 -13 -11 -5 -12 -2
-15 9 -10 9 3 13 2 10 -4 -7 -11 -41 -8 -52 5 -5 4 -3 5 4 1 16 -9 47 54 32
68 -7 8 -10 7 -7 -4 2 -10 -3 -14 -14 -12 -10 2 -18 -2 -18 -8 0 -6 6 -8 13
-4 8 5 8 2 -2 -9 -15 -18 -26 -23 -16 -7 3 6 2 10 -4 10 -6 0 -8 8 -4 18 5 14
3 13 -10 -3 -8 -11 -13 -24 -10 -28 3 -5 -1 -7 -8 -6 -18 3 -52 -11 -61 -25
-5 -7 -8 -6 -8 4 -1 12 -3 11 -11 -3 -5 -9 -7 -22 -3 -29 5 -7 3 -8 -6 -3 -9
6 -12 4 -8 -7 4 -10 0 -14 -15 -13 -12 1 -26 -3 -30 -9 -5 -6 -5 0 -2 14 4 17
3 21 -3 11 -5 -7 -15 -11 -21 -7 -7 4 -9 1 -5 -7 7 -19 -12 -32 -22 -16 -5 8
-3 9 6 4 9 -5 11 -4 6 3 -9 15 -11 15 -27 -5 -10 -11 -10 -14 -1 -9 7 4 12 1
12 -8 0 -17 -20 -18 -32 -2 -8 12 -38 -11 -38 -30 0 -8 -5 -14 -11 -14 -5 0
-7 6 -3 13 4 6 -2 3 -14 -7 -28 -24 -29 -46 -2 -39 11 3 18 9 15 13 -3 4 2 11
10 14 12 4 13 2 6 -13 -6 -10 -7 -21 -4 -25 11 -11 33 -6 33 7 0 16 54 49 64
40 4 -4 4 -1 1 8 -4 10 1 15 17 16 12 1 26 9 30 18 11 19 44 20 52 0 3 -8 -4
-21 -17 -30 -12 -8 -16 -15 -9 -15 6 0 12 -8 12 -17 0 -10 -4 -14 -8 -8 -9 13
-42 18 -42 7 0 -5 -12 -14 -27 -21 l-28 -13 24 -19 c13 -10 19 -19 13 -19 -5
0 -15 7 -22 15 -17 20 -32 19 -28 -2 2 -10 -3 -17 -9 -16 -12 3 -17 -10 -14
-30 1 -5 -3 -6 -9 -2 -7 4 -7 12 0 25 13 24 -14 50 -33 31 -9 -10 -9 -12 2 -9
7 2 16 -4 18 -12 4 -13 3 -13 -6 0 -7 9 -11 10 -11 3 0 -6 -9 -10 -20 -8 -11
2 -20 -1 -20 -7 0 -6 -3 -8 -7 -4 -5 4 1 14 11 22 24 17 30 44 10 44 -8 0 -11
-7 -8 -17 4 -10 -2 -6 -12 8 -16 23 -21 25 -32 13 -12 -13 -8 -18 11 -15 4 0
7 -4 7 -9 0 -15 -16 -12 -34 6 -15 14 -16 14 -16 -1 0 -9 -4 -14 -8 -11 -11 7
-52 -30 -52 -46 0 -9 3 -9 12 0 7 7 17 12 23 12 5 0 2 -5 -8 -11 -10 -6 -14
-16 -10 -22 3 -7 -3 -4 -14 6 -17 14 -22 15 -31 4 -8 -9 -8 -17 -1 -24 6 -6 5
-10 -5 -10 -8 0 -13 4 -10 9 11 18 -9 7 -39 -22 -27 -26 -30 -32 -17 -41 12
-8 11 -9 -5 -6 -11 2 -19 9 -17 17 3 11 0 11 -13 0 -14 -11 -14 -14 1 -25 11
-8 13 -14 6 -19 -15 -9 -43 4 -35 17 3 6 1 7 -6 3 -9 -6 -9 -11 0 -22 7 -9 8
-14 3 -13 -21 4 -34 -2 -34 -16 0 -8 -3 -14 -7 -14 -28 5 -33 -1 -22 -23 12
-22 11 -22 -6 -8 -17 14 -18 13 -13 -2 5 -12 1 -16 -17 -13 -14 1 -22 -1 -20
-6 3 -4 -5 -18 -19 -32 -19 -19 -21 -25 -9 -33 12 -8 12 -12 -2 -29 -16 -20
-16 -19 -5 3 6 12 7 22 2 22 -5 0 -14 -11 -20 -25 -8 -17 -17 -23 -29 -18 -16
5 -16 4 -3 -8 8 -8 13 -13 11 -12 -2 2 -11 -6 -18 -17 -8 -11 -19 -17 -25 -14
-7 5 -9 1 -5 -9 6 -15 -2 -21 -24 -19 -3 1 -6 -6 -6 -14 0 -17 14 -19 19 -2 3
7 7 3 10 -9 5 -18 2 -21 -19 -17 -15 3 -22 1 -18 -6 3 -6 0 -7 -9 -4 -9 3 -16
1 -16 -5 0 -6 4 -11 8 -11 5 0 9 -7 9 -15 0 -11 -4 -12 -14 -3 -11 8 -12 7 -7
-6 4 -10 0 -18 -10 -22 -13 -5 -14 -9 -5 -20 15 -18 5 -18 -30 1 -28 14 -91
103 -91 127 0 16 -21 -4 -23 -23 -2 -8 -5 -18 -8 -24 -3 -5 -11 -29 -19 -52
-9 -30 -27 -53 -61 -80 -51 -40 -62 -58 -29 -48 11 3 20 3 20 -2 0 -4 12 -9
26 -10 15 0 37 -6 49 -13 28 -15 53 -59 39 -68 -5 -4 -9 -14 -9 -22 0 -8 -5
-21 -13 -29 -7 -7 -12 -23 -10 -35 2 -12 -6 -30 -20 -43 -13 -13 -18 -23 -13
-23 6 0 11 -8 10 -17 0 -11 -3 -13 -6 -5 -2 6 -9 12 -14 12 -4 0 -6 -6 -3 -14
3 -8 0 -17 -6 -21 -8 -5 -7 -11 2 -23 7 -10 8 -14 4 -10 -11 9 -45 -53 -39
-69 3 -7 10 -10 17 -6 6 4 5 -1 -3 -10 -15 -18 -26 -23 -16 -7 3 6 4 10 0 10
-6 0 -23 -41 -21 -51 0 -4 -8 -16 -18 -28 -11 -12 -16 -21 -12 -21 3 0 0 -13
-9 -30 -9 -16 -13 -30 -9 -30 4 0 2 -6 -4 -13 -6 -7 -9 -25 -8 -40 2 -18 -1
-27 -10 -27 -8 0 -14 -10 -14 -24 0 -14 -5 -28 -10 -31 -6 -4 -8 -11 -4 -16 3
-5 0 -17 -7 -25 -6 -8 -9 -17 -6 -21 4 -3 2 -15 -4 -25 -7 -13 -7 -24 -1 -30
6 -6 2 -17 -12 -31 -18 -19 -23 -20 -36 -8 -9 9 -15 10 -18 3 -2 -6 -10 -8
-18 -5 -8 3 -14 0 -14 -6 0 -8 -6 -9 -18 -2 -11 6 -24 6 -35 0 -9 -6 -22 -7
-27 -4 -6 3 -10 3 -10 -2 0 -4 -21 -8 -47 -7 -27 0 -61 -3 -78 -7 -16 -4 -50
-10 -75 -14 -71 -9 -88 -13 -101 -20 -6 -4 -23 -9 -38 -11 -14 -1 -35 -5 -46
-7 -63 -15 -81 -20 -90 -26 -10 -5 -38 -10 -82 -13 -13 -1 -23 -6 -23 -10 0
-4 -9 -8 -19 -8 -11 0 -23 -5 -26 -11 -4 -6 -13 -8 -21 -5 -8 3 -14 1 -14 -5
0 -6 -5 -7 -10 -4 -6 3 -10 1 -10 -5 0 -6 -4 -8 -10 -5 -5 3 -10 1 -10 -5 0
-6 -5 -8 -11 -4 -6 3 -15 1 -19 -5 -4 -7 -17 -13 -28 -14 -12 -1 -22 -5 -22
-10 0 -4 -4 -5 -10 -2 -5 3 -10 2 -10 -3 0 -9 -43 -33 -67 -38 -34 -7 -141
-106 -149 -140 -3 -13 -10 -21 -15 -18 -5 3 -9 -6 -9 -20 0 -14 -4 -26 -10
-26 -5 0 -7 -6 -4 -14 3 -8 1 -17 -4 -20 -13 -8 -3 -53 14 -67 8 -6 14 -17 14
-23 0 -6 14 -20 30 -31 16 -11 30 -23 30 -27 0 -5 6 -8 14 -8 8 0 16 -3 18 -7
2 -5 16 -19 32 -33 16 -14 26 -18 21 -10 -5 9 2 6 16 -6 36 -31 76 -54 94 -54
13 0 14 -2 3 -14 -7 -8 -15 -14 -18 -14 -14 0 -50 -15 -50 -21 0 -4 -21 -23
-47 -41 -27 -19 -64 -50 -83 -69 -38 -40 -83 -115 -73 -125 4 -3 2 -6 -3 -6
-6 0 -9 -17 -8 -37 2 -54 3 -55 17 -47 6 4 9 4 5 -1 -4 -4 -2 -15 5 -23 9 -13
9 -14 -1 -8 -6 4 -12 5 -12 3 0 -11 98 -66 128 -72 18 -4 30 -11 26 -16 -3 -5
0 -9 5 -9 6 0 11 5 11 11 0 6 7 4 15 -5 9 -8 23 -12 32 -9 12 5 14 3 8 -7 -6
-10 -4 -12 8 -7 10 3 17 2 17 -2 0 -5 9 -7 20 -4 11 3 20 1 20 -4 0 -9 29 -12
117 -15 13 0 20 -4 17 -10 -3 -5 0 -9 7 -7 48 6 58 -1 73 -51 1 -3 5 -11 9
-17 5 -7 5 -13 2 -13 -3 0 2 -8 12 -19 24 -25 81 -53 93 -46 6 3 10 3 10 -2 0
-4 11 -8 25 -8 14 0 25 5 25 10 0 6 5 3 10 -5 7 -10 10 -11 10 -2 0 7 12 18
28 25 31 14 47 30 68 72 9 19 14 22 11 9 -4 -17 0 -20 20 -16 16 3 21 7 13 12
-8 5 -8 10 -2 14 5 3 13 -1 16 -10 3 -8 10 -12 16 -9 6 4 7 11 4 17 -4 7 -2 8
5 4 6 -4 8 -12 5 -18 -5 -7 2 -9 20 -6 15 3 26 1 27 -6 0 -6 4 -2 9 9 7 16 9
16 9 4 1 -21 25 -31 39 -17 7 7 15 2 27 -15 17 -27 53 -30 94 -8 11 6 29 11
41 11 12 0 18 4 15 10 -3 6 1 7 9 4 9 -3 14 -9 12 -13 -2 -3 10 -5 27 -5 18 1
39 -4 47 -10 13 -10 13 -9 0 8 -10 13 -11 17 -2 12 7 -4 20 -2 29 6 9 7 14 8
11 3 -4 -6 -3 -17 3 -25 7 -13 9 -12 9 2 0 9 5 20 12 24 6 4 9 3 6 -2 -3 -5 0
-15 8 -22 8 -7 14 -8 14 -2 0 5 5 10 11 10 5 0 8 -4 5 -8 -2 -4 5 -9 16 -9 12
-1 24 -7 28 -13 4 -7 10 -11 14 -11 17 3 26 0 25 -6 -4 -22 3 -30 24 -26 28 5
66 -20 47 -32 -9 -5 -11 -4 -6 3 4 7 4 12 -1 12 -12 0 -39 -20 -28 -20 6 0 3
-5 -5 -10 -11 -7 -11 -10 -2 -10 7 0 11 -4 8 -9 -3 -4 3 -16 14 -26 20 -18 29
-8 9 12 -7 7 -5 15 6 27 19 19 42 11 25 -9 -8 -10 -6 -15 10 -20 31 -10 21
-40 -14 -40 -25 1 -26 0 -10 -12 17 -12 34 -37 55 -83 7 -15 13 -20 16 -12 3
6 9 9 15 6 6 -4 8 -1 6 7 -3 8 -11 13 -17 12 -6 -2 -10 3 -8 10 1 6 -3 11 -10
10 -6 -1 -14 4 -17 13 -4 9 -2 12 5 8 7 -4 10 -1 7 7 -3 8 -12 13 -19 11 -8
-2 -10 0 -6 4 13 13 37 13 37 -1 0 -7 7 -15 15 -19 9 -3 12 -12 8 -22 -4 -12
-3 -15 5 -10 8 4 12 0 12 -11 1 -17 2 -17 13 -1 12 15 14 15 24 -1 8 -13 8
-22 1 -29 -13 -13 -2 -32 18 -32 9 0 12 -5 8 -12 -5 -8 -2 -9 9 -5 9 3 19 1
23 -5 4 -7 3 -8 -4 -4 -7 4 -12 2 -12 -3 0 -6 7 -11 15 -11 17 0 19 -12 5 -26
-8 -8 -6 -15 5 -24 13 -11 15 -10 10 3 -4 8 -1 18 4 22 6 3 9 11 6 16 -4 5 -1
9 4 9 14 0 14 -17 0 -25 -5 -4 -8 -12 -6 -18 2 -7 0 -22 -4 -34 -6 -17 -5 -23
6 -23 8 0 15 -4 15 -9 0 -5 7 -12 16 -15 8 -3 12 -2 9 3 -3 5 -1 12 5 16 6 4
10 -6 10 -25 0 -19 4 -29 10 -25 6 4 7 11 4 17 -4 7 -2 8 5 4 6 -4 9 -12 6
-17 -4 -5 -2 -9 4 -9 9 0 26 -39 22 -50 -1 -3 -9 -4 -17 -2 -8 2 -14 -2 -14
-8 0 -6 5 -8 10 -5 6 3 10 1 10 -4 0 -6 7 -11 15 -11 8 0 14 -3 14 -8 -3 -20
4 -32 39 -56 42 -29 64 -34 56 -12 -6 15 -63 43 -78 38 -5 -2 -3 5 5 14 8 10
10 15 4 13 -5 -3 -18 2 -27 12 -14 15 -14 18 -2 23 8 3 17 -1 20 -9 4 -8 10
-15 15 -15 6 0 5 10 -2 21 -7 13 -7 19 -1 15 6 -3 13 -2 17 4 3 5 12 10 18 10
7 0 6 -4 -3 -10 -8 -5 -16 -21 -17 -35 -2 -22 1 -25 13 -15 9 8 14 9 14 2 0
-6 9 -9 19 -7 11 2 25 -3 32 -11 9 -12 15 -12 27 -2 11 9 14 9 9 1 -4 -6 -3
-14 3 -18 5 -3 10 2 11 12 0 11 3 13 6 5 6 -16 -16 -44 -28 -36 -5 3 -6 10 -3
16 4 6 2 8 -4 4 -6 -3 -13 -2 -17 4 -4 6 -11 8 -16 5 -15 -10 -10 -23 8 -21
20 1 28 -44 9 -56 -8 -6 -7 -8 2 -8 7 0 10 -5 7 -10 -3 -5 3 -10 14 -10 11 0
22 -8 24 -18 4 -14 5 -13 6 4 1 19 31 31 31 12 0 -4 4 -8 10 -8 5 0 7 7 3 15
-3 10 0 15 8 13 8 -2 14 5 14 16 0 11 7 21 15 23 10 3 11 2 4 -4 -8 -5 -1 -19
24 -43 39 -39 43 -40 53 -13 6 15 8 15 8 2 1 -9 7 -22 15 -28 11 -10 19 -7 36
11 21 22 22 22 11 2 -8 -18 -7 -27 10 -48 11 -14 25 -23 31 -20 7 4 8 2 4 -4
-4 -7 -2 -12 5 -12 7 0 9 -3 6 -6 -4 -4 -15 -1 -24 7 -16 13 -17 12 -4 -3 7
-10 10 -18 6 -18 -4 0 -1 -8 6 -17 12 -14 12 -16 -1 -11 -11 4 -16 0 -17 -13
-1 -13 5 -19 18 -19 13 0 18 -4 13 -12 -4 -7 -3 -10 1 -5 5 4 16 0 25 -8 9 -8
25 -16 36 -18 10 -1 24 -5 29 -8 6 -3 17 -5 25 -4 8 0 18 -3 21 -8 3 -5 9 -2
12 6 4 10 -1 14 -15 13 -12 0 -23 6 -25 14 -4 12 -3 12 5 1 8 -11 10 -11 15 0
4 11 6 11 6 1 1 -7 6 -10 11 -7 8 5 8 11 0 20 -7 9 -6 16 4 24 10 8 16 9 21 1
3 -6 12 -7 18 -4 7 4 6 1 -2 -7 -10 -11 -15 -11 -18 -1 -3 6 -9 9 -14 6 -6 -3
-5 -11 2 -20 6 -8 8 -14 3 -14 -4 0 1 -7 12 -15 19 -15 19 -15 -1 -9 -15 5
-17 4 -9 -5 6 -6 21 -14 34 -16 18 -3 21 -2 12 7 -18 18 -15 28 8 28 11 0 20
-4 20 -10 0 -5 -8 -7 -17 -3 -15 5 -16 3 -5 -8 18 -20 15 -42 -5 -35 -10 4
-14 4 -10 0 4 -4 1 -14 -5 -23 -10 -13 -10 -14 2 -3 19 17 35 15 21 -2 -10
-12 -8 -17 7 -25 14 -7 19 -7 19 4 0 8 -7 11 -16 7 -14 -5 -14 -3 -2 11 7 9
18 14 24 10 6 -4 7 -1 2 6 -5 9 1 11 25 8 20 -4 30 -2 28 5 -2 6 -15 13 -28
15 -13 2 -26 6 -29 9 -3 3 5 4 18 2 13 -1 26 3 28 10 3 8 -1 10 -14 6 -14 -6
-15 -4 -6 6 14 15 36 3 29 -16 -3 -8 1 -17 9 -21 22 -8 0 -33 -25 -28 -10 2
-21 -3 -24 -11 -4 -12 -2 -12 14 -4 11 6 20 8 20 5 0 -3 9 -1 21 5 17 9 25 8
42 -7 20 -17 20 -17 14 0 -4 10 -7 23 -7 28 0 6 -5 7 -12 3 -6 -4 -8 -3 -5 4
8 12 32 10 44 -3 4 -4 2 -5 -4 -1 -18 10 -10 -53 8 -65 22 -14 36 -10 16 5
-16 12 -16 14 -2 20 9 3 14 2 11 -3 -3 -5 2 -15 11 -22 15 -12 16 -12 10 5 -6
16 -5 17 8 6 9 -7 12 -16 8 -19 -11 -9 -34 -51 -27 -51 12 0 33 28 26 35 -4 5
0 4 8 -1 19 -11 72 -15 66 -5 -3 4 1 8 9 8 18 0 10 -14 -17 -28 -11 -6 -18 -7
-14 -1 3 5 -4 9 -17 8 -22 -1 -39 -19 -43 -43 -1 -7 2 -13 8 -13 6 0 8 7 4 15
-3 9 3 19 15 25 15 9 21 7 25 -5 3 -8 10 -15 16 -15 5 0 6 5 3 10 -3 6 -2 10
2 10 5 0 14 -9 21 -20 10 -17 15 -18 32 -8 10 7 17 15 14 18 -9 9 -29 6 -36
-5 -5 -6 -8 -3 -8 7 0 9 5 20 10 23 6 3 10 1 10 -5 0 -6 4 -9 9 -5 5 3 17 -2
25 -11 9 -8 16 -12 16 -8 0 4 9 -1 19 -10 16 -14 23 -15 41 -6 11 6 26 9 33 6
7 -2 4 -5 -5 -5 -12 -1 -16 -7 -12 -18 4 -11 3 -14 -3 -7 -9 13 -41 12 -62 -1
-10 -6 -12 -4 -6 5 6 9 4 11 -5 5 -9 -6 -11 -4 -5 5 6 9 4 11 -5 5 -9 -6 -11
-4 -5 6 5 8 4 10 0 6 -13 -11 -15 -38 -2 -30 6 4 8 0 5 -9 -4 -9 0 -15 8 -15
8 0 14 3 14 7 0 11 54 7 62 -5 5 -6 8 -5 8 3 0 7 5 10 10 7 8 -5 8 -11 1 -19
-8 -9 -7 -13 4 -13 8 0 12 4 10 8 -3 4 2 9 10 13 17 6 48 -21 40 -35 -4 -5 -2
-9 3 -9 6 0 9 11 8 24 0 13 -5 21 -11 18 -5 -3 -4 1 2 10 7 8 11 17 8 20 -3 2
2 5 10 5 8 0 15 -4 15 -9 0 -4 -5 -8 -11 -8 -5 0 -7 -5 -4 -11 5 -7 13 -5 25
6 16 14 19 14 34 -9 11 -18 13 -27 4 -32 -6 -4 -8 -3 -4 4 4 7 -3 9 -21 6 -23
-3 -25 -2 -10 6 9 6 17 16 17 22 0 6 -8 4 -18 -5 -10 -10 -22 -14 -27 -10 -4
5 -2 -2 6 -14 9 -15 17 -19 25 -13 6 6 14 7 17 3 10 -9 9 -25 -1 -19 -5 3 -9
-2 -9 -11 0 -13 4 -11 18 6 15 19 19 20 32 6 12 -11 17 -12 20 -2 3 7 6 5 6
-5 1 -9 6 -20 13 -24 6 -4 8 -3 5 3 -14 23 -18 81 -6 89 9 5 10 2 6 -9 -9 -25
2 -47 20 -40 11 4 14 2 9 -5 -4 -7 1 -10 15 -7 16 3 19 0 15 -12 -6 -14 -3
-14 19 1 22 15 29 15 43 4 11 -9 14 -10 8 0 -4 6 -2 12 3 12 6 0 11 -4 11 -10
0 -5 10 -8 23 -6 12 1 21 6 20 9 -2 4 -3 10 -3 13 0 4 -8 0 -17 -7 -14 -12
-16 -12 -8 0 6 10 4 12 -5 6 -9 -6 -11 -4 -5 4 6 10 3 11 -13 2 -16 -8 -23 -6
-38 12 -10 12 -15 19 -10 15 5 -4 15 -1 23 7 17 18 33 19 33 4 0 -5 -4 -8 -9
-5 -5 3 -14 -1 -20 -8 -8 -10 -9 -16 -1 -21 5 -3 10 -1 10 5 0 6 4 9 9 5 6 -3
15 3 21 12 10 15 11 15 6 1 -7 -23 5 -31 19 -11 9 13 14 13 20 3 6 -9 4 -11
-5 -5 -8 5 -11 3 -8 -6 3 -8 12 -12 19 -10 8 2 20 4 27 4 11 0 16 11 13 30 -1
5 3 6 8 2 6 -3 7 -13 4 -22 -4 -10 -2 -14 5 -9 6 3 14 1 18 -5 5 -8 3 -9 -6
-4 -9 6 -11 4 -5 -6 7 -11 5 -11 -10 1 -10 8 -16 10 -12 3 5 -8 0 -10 -17 -7
-14 2 -26 -1 -29 -10 -6 -14 8 -16 28 -5 6 4 19 4 30 2 11 -3 35 -5 53 -6 17
0 32 -4 32 -9 0 -4 5 -8 11 -8 8 0 7 5 -1 15 -11 13 -11 18 0 28 9 9 11 9 6 0
-7 -13 11 -27 34 -28 8 0 14 -6 12 -13 -1 -8 2 -11 8 -7 8 5 7 11 -1 21 -8 9
-8 14 -1 14 6 0 16 -8 21 -17 6 -10 11 -13 11 -7 0 14 30 14 30 0 0 -6 4 -5 9
2 4 8 12 14 16 14 4 0 12 -6 16 -14 5 -7 9 -8 9 -2 0 6 10 11 23 10 12 -1 21
-7 19 -15 -1 -7 2 -10 8 -6 8 5 8 11 1 19 -16 19 -1 27 17 9 14 -14 17 -14 29
2 13 19 9 35 -10 35 -8 0 -8 -3 1 -9 11 -7 10 -9 -3 -14 -11 -5 -14 -3 -9 6 4
6 4 9 -1 5 -4 -4 -21 0 -37 8 -28 14 -48 12 -48 -6 0 -4 8 -6 19 -3 10 3 22
-1 26 -8 5 -8 4 -10 -3 -5 -7 4 -12 1 -12 -6 0 -9 -3 -9 -10 2 -9 13 -10 13
-10 0 0 -9 -3 -11 -8 -5 -8 13 -132 15 -132 2 0 -4 -5 -5 -11 -1 -16 10 8 23
38 19 16 -1 22 2 19 10 -2 7 4 19 15 28 10 9 19 12 19 7 0 -6 -6 -13 -14 -16
-8 -3 -13 -11 -10 -18 6 -15 35 -17 33 -2 -1 6 -1 18 0 26 1 13 3 13 10 1 5
-8 6 -21 3 -30 -5 -14 -3 -14 11 -3 8 8 13 21 10 30 -3 10 -1 13 4 7 4 -5 15
-10 23 -10 8 0 18 5 22 10 4 6 8 2 8 -7 0 -10 5 -18 11 -18 5 0 7 5 3 12 -5 7
-3 8 7 3 19 -12 49 -14 55 -3 3 4 9 8 15 8 14 0 11 -26 -6 -40 -8 -7 -12 -17
-9 -22 3 -5 9 -7 12 -4 3 3 12 0 21 -6 9 -7 7 -2 -4 11 l-20 23 30 -2 c50 -4
75 0 75 9 0 10 -19 9 -37 -2 -6 -4 -14 -3 -18 3 -4 6 -12 7 -18 4 -7 -4 -4 2
6 12 14 15 19 16 26 6 11 -18 15 -19 32 -5 10 8 20 9 29 3 22 -14 30 -12 24 8
-5 14 -4 14 5 2 7 -11 6 -19 -5 -31 -12 -14 -13 -18 -2 -25 7 -4 10 -4 6 1
-11 11 29 38 44 29 8 -5 9 -1 4 12 -5 14 -4 16 5 7 12 -12 3 -37 -11 -28 -5 3
-11 1 -15 -4 -3 -6 6 -8 21 -5 16 3 23 1 19 -6 -3 -5 -1 -10 5 -10 6 0 10 6 9
13 -4 29 2 48 14 46 28 -3 48 2 42 11 -4 6 5 5 19 -2 14 -6 26 -16 26 -22 1
-6 7 0 15 14 14 25 20 27 42 8 9 -7 15 -6 19 6 6 16 24 13 24 -5 0 -6 -5 -7
-12 -3 -6 4 -8 3 -5 -3 5 -7 -6 -10 -28 -7 -25 2 -35 -1 -35 -11 0 -8 4 -17
10 -20 5 -3 7 0 4 8 -3 8 2 14 11 14 9 0 14 -5 12 -12 -3 -6 5 -11 17 -12 11
0 15 1 9 4 -7 3 -13 9 -13 15 0 6 11 3 23 -5 19 -12 24 -13 24 -2 0 8 -5 11
-10 8 -5 -3 -8 0 -5 8 3 8 9 14 14 15 19 2 55 20 56 29 0 11 -30 27 -40 21 -5
-3 -9 1 -9 9 0 12 5 12 28 -1 47 -24 46 -32 -4 -67 -17 -12 -17 -13 2 -13 11
0 17 4 15 8 -5 8 11 12 30 9 5 -1 6 5 3 13 -4 9 -1 18 5 22 7 4 5 10 -6 16 -9
5 -16 13 -16 18 0 6 9 2 19 -7 11 -9 17 -22 14 -28 -2 -7 1 -16 7 -20 8 -5 7
-11 -2 -23 -12 -16 -11 -16 6 -2 11 8 30 15 44 15 14 1 27 7 30 15 2 9 0 11
-5 5 -4 -5 -15 -11 -24 -11 -12 -1 -16 7 -15 29 1 28 26 54 26 27 0 -6 -5 -8
-12 -4 -8 5 -9 2 -5 -10 4 -10 7 -21 7 -24 0 -4 5 0 10 8 9 13 13 12 30 -9 11
-13 20 -18 20 -12 0 5 -10 19 -21 30 l-21 20 22 -6 c16 -4 21 -3 16 5 -4 7 -2
12 4 12 7 0 9 -7 6 -16 -4 -12 -2 -15 9 -10 8 3 15 1 15 -4 0 -6 5 -10 12 -10
9 0 9 3 0 12 -16 16 -15 25 2 31 11 4 13 1 10 -11 -5 -14 -4 -14 4 -2 9 12 13
12 29 -3 18 -15 19 -15 20 4 1 14 -3 19 -12 15 -8 -3 -17 -2 -19 3 -7 11 26
10 40 -1 12 -9 28 17 19 32 -3 4 4 6 14 3 11 -3 22 -12 24 -22 4 -13 5 -13 6
3 1 15 4 16 15 7 10 -8 16 -9 21 -1 4 6 1 9 -5 8 -7 -2 -14 6 -16 16 -1 10 -8
22 -14 26 -8 5 -9 10 -2 14 6 3 13 -3 17 -14 4 -11 15 -20 26 -20 13 0 18 4
13 12 -5 8 0 9 14 6 12 -4 20 -2 16 3 -3 5 0 9 5 9 6 0 11 8 11 17 0 16 -1 16
-12 0 -12 -16 -14 -16 -27 5 -13 21 -13 22 2 10 13 -11 17 -10 25 5 9 16 11
14 18 -12 6 -26 8 -27 15 -10 7 20 8 20 8 0 1 -16 3 -17 10 -5 6 8 8 17 5 21
-2 4 5 5 16 2 12 -3 20 0 20 6 0 7 -5 9 -12 5 -7 -5 -8 -3 -3 6 5 9 2 10 -14
5 -15 -4 -21 -2 -21 8 0 9 -3 17 -7 20 -5 2 -3 2 4 1 7 -2 15 1 18 7 4 5 10 7
15 4 16 -10 17 30 1 50 -12 14 -8 13 14 -5 49 -40 51 -43 28 -31 -19 10 -23 9
-23 -3 0 -10 6 -13 18 -10 14 5 15 4 2 -5 -13 -9 -13 -11 -1 -11 11 0 9 -4 -5
-15 -18 -14 -18 -15 8 -11 15 3 29 1 31 -2 2 -4 2 -2 1 5 -4 18 19 32 48 29
19 -2 25 1 21 10 -4 10 3 13 26 10 23 -2 29 0 22 8 -7 8 -4 12 11 13 12 1 24
7 28 13 4 7 9 11 11 9 8 -5 49 13 50 22 1 5 2 15 3 22 1 7 13 11 29 10 15 -1
25 2 22 8 -4 5 2 9 12 10 16 0 16 1 -2 8 -11 5 -23 4 -26 -1 -3 -5 -10 -8 -15
-7 -14 3 -48 -13 -62 -30 -11 -14 -11 -14 -6 2 3 9 2 17 -4 17 -12 0 -24 -29
-17 -40 3 -5 0 -12 -6 -16 -7 -4 -9 -3 -5 4 4 7 -2 10 -14 9 -13 -1 -19 -6
-15 -15 4 -11 0 -11 -20 2 -14 9 -25 12 -25 7 0 -6 8 -15 18 -20 9 -6 12 -11
5 -11 -6 0 -15 5 -18 10 -10 16 -25 2 -18 -16 5 -13 1 -15 -17 -9 -17 6 -21 4
-14 -6 6 -10 3 -10 -11 1 -11 9 -16 10 -11 3 4 -7 3 -20 -2 -29 -6 -11 -12
-13 -16 -6 -3 6 -2 13 4 17 7 4 7 12 0 25 -8 16 -8 18 4 14 11 -4 14 0 11 16
-3 16 -1 19 8 12 18 -14 49 -11 43 5 -3 7 -1 12 3 10 5 -1 23 10 40 26 17 15
31 23 31 17 0 -5 -9 -14 -20 -20 -11 -6 -18 -16 -14 -22 4 -7 9 -6 14 2 4 7
12 10 17 7 5 -3 10 0 11 8 1 8 3 22 4 30 1 11 5 12 12 5 17 -17 29 -11 15 7
-12 16 -12 17 1 7 8 -6 24 -14 35 -17 16 -6 15 -3 -6 16 -24 20 -25 24 -13 52
9 21 13 24 14 11 0 -16 3 -15 21 8 11 14 26 23 32 19 6 -4 8 0 4 10 -4 10 2
23 17 34 15 13 22 26 19 43 -2 19 -1 21 6 10 5 -8 8 -17 6 -20 -2 -4 9 -7 25
-7 28 0 35 14 15 29 -6 5 -6 8 2 8 6 0 19 8 29 17 16 16 16 16 9 -6 -6 -20 -5
-21 13 -10 17 11 18 15 6 26 -17 17 -18 27 -2 17 7 -5 9 -2 6 8 -4 8 0 15 7
15 10 0 11 -5 5 -17 -6 -11 -5 -21 2 -28 18 -18 32 -14 18 3 -7 9 -10 18 -6
22 3 3 6 1 6 -6 0 -7 5 -9 10 -6 6 4 7 11 4 17 -4 6 -3 8 2 5 6 -3 15 3 22 14
10 15 10 19 0 19 -7 0 -5 5 5 11 14 8 16 14 6 25 -16 19 -4 18 15 -2 21 -21
20 -38 -1 -29 -14 5 -15 3 -6 -6 14 -14 36 -2 29 16 -2 7 2 16 10 19 12 5 14
1 8 -17 -10 -34 -23 -45 -44 -40 -12 3 -20 0 -20 -7 0 -7 6 -10 14 -7 8 3 22
-1 33 -9 17 -13 15 -14 -14 -10 -18 2 -35 0 -38 -4 -3 -5 3 -7 14 -5 24 4 48
-19 31 -30 -6 -4 -14 -4 -17 -1 -4 3 -1 6 6 6 7 0 9 5 6 10 -5 8 -12 7 -23 -2
-10 -8 -13 -8 -9 -1 8 12 -10 12 -30 0 -7 -5 -17 -6 -22 -3 -13 8 -45 -20 -37
-33 4 -6 11 -9 15 -6 5 2 9 -7 9 -20 0 -14 -5 -25 -10 -25 -5 0 -6 -5 -2 -12
4 -6 3 -8 -3 -5 -12 7 -25 -17 -16 -27 11 -11 24 -6 17 6 -6 10 -5 10 7 1 12
-10 20 -9 37 3 12 8 22 20 22 25 0 17 -24 36 -40 32 -13 -4 -13 -3 0 6 10 7
19 6 29 -2 11 -10 13 -9 9 3 -3 8 -12 14 -21 14 -9 -1 -14 2 -12 7 3 4 -4 6
-15 4 -12 -2 -18 0 -15 6 10 15 56 5 71 -16 8 -10 14 -15 14 -10 0 5 -7 17
-17 27 -22 24 -12 33 13 10 28 -25 48 -21 52 11 3 26 15 32 50 28 14 -2 12 20
-3 32 -6 5 -4 7 5 6 27 -3 40 1 40 11 0 5 -7 7 -15 4 -8 -4 -15 -1 -15 5 0 9
-5 9 -20 1 -12 -6 -18 -16 -14 -23 4 -7 4 -9 -1 -5 -4 4 -14 3 -22 -3 -9 -9
-13 -8 -13 0 0 6 7 14 15 17 8 4 12 10 9 15 -8 13 16 40 28 33 5 -3 1 -13 -9
-21 -10 -8 -12 -11 -5 -8 8 4 32 8 54 9 30 2 47 10 64 29 13 15 28 27 35 27 6
0 9 7 5 15 -3 8 0 15 7 15 7 0 20 9 30 20 9 11 13 20 8 20 -5 0 -12 7 -15 16
-3 9 -2 12 5 9 16 -10 47 32 44 59 -2 18 1 23 12 19 12 -5 12 -7 1 -15 -10 -8
-10 -9 2 -5 9 2 15 14 14 30 -1 15 2 24 6 22 4 -3 14 3 21 12 12 14 12 16 -1
8 -13 -8 -13 -6 -1 8 7 9 18 14 25 10 6 -4 4 2 -4 12 -8 10 -10 16 -5 13 14
-8 33 21 29 45 -1 11 0 16 3 13 12 -11 48 45 44 70 0 6 12 36 29 67 17 32 28
57 25 57 -3 0 3 9 12 20 9 10 18 29 20 42 2 12 7 25 12 28 5 3 11 14 15 25 5
17 14 20 62 19 82 -2 110 16 144 96 17 42 31 67 26 48 -3 -10 -1 -18 4 -18 6
0 10 8 10 18 0 14 2 15 10 2 9 -13 10 -13 10 0 0 12 2 12 9 1 7 -10 13 -11 30
-2 11 7 21 14 21 17 0 2 -8 0 -18 -5 -14 -7 -19 -6 -19 4 0 7 7 11 15 7 11 -4
13 -1 7 9 -5 8 -1 7 12 -3 22 -20 33 -23 33 -7 0 5 -5 7 -12 3 -7 -4 -8 -3 -4
4 5 8 13 9 24 3 9 -4 23 -6 31 -3 10 3 11 0 5 -9 -7 -12 -5 -12 9 0 14 11 17
11 18 0 1 -8 1 -18 0 -22 -1 -4 8 -3 19 3 11 6 20 7 20 2 0 -5 19 -3 43 5 28
9 49 25 65 48 12 19 27 35 33 35 5 0 7 5 3 12 -4 6 -3 8 4 4 6 -3 13 -2 17 4
3 5 12 10 18 10 7 0 6 -4 -3 -10 -9 -6 -10 -10 -3 -10 7 0 17 8 22 18 8 13 10
14 11 2 0 -13 1 -13 10 0 5 8 10 11 10 7 0 -4 9 -3 20 3 11 6 17 16 14 22 -5
7 -2 8 5 4 17 -11 72 13 64 28 -4 7 -1 7 8 -1 12 -10 18 -10 27 -1 7 7 12 8
12 4 0 -5 9 2 21 15 11 13 18 19 15 12 -9 -18 25 -9 39 11 7 9 17 16 21 15 21
-4 26 2 13 19 -11 14 -11 15 1 5 22 -20 32 -15 25 10 -6 20 -6 20 6 5 10 -12
20 -14 37 -7 12 4 22 13 22 19 0 5 3 9 8 9 19 -3 25 2 12 11 -9 6 -10 10 -3
10 6 0 15 -5 18 -10 4 -6 21 2 41 20 20 17 40 27 46 24 7 -5 9 -1 5 9 -3 9 -2
19 3 22 4 3 11 -1 13 -7 3 -8 6 -5 6 6 1 14 4 16 14 8 10 -8 13 -6 13 8 0 10
-3 17 -7 14 -4 -2 -10 4 -12 13 -4 16 -5 16 -6 -1 -1 -12 -6 -16 -17 -12 -8 3
-13 2 -10 -2 2 -4 -3 -16 -11 -27 -15 -19 -15 -19 -8 5 5 19 4 22 -4 14 -7 -6
-13 -21 -14 -33 -1 -11 -5 -21 -10 -21 -5 0 -5 10 -2 23 7 20 6 21 -7 4 -7
-10 -22 -20 -33 -21 -11 -2 -19 -9 -17 -16 2 -7 -3 -10 -11 -7 -8 3 -24 -1
-36 -9 -12 -8 -26 -12 -33 -8 -7 4 -8 3 -4 -4 4 -7 1 -12 -8 -12 -9 0 -16 -4
-16 -9 0 -6 -9 -8 -21 -6 -17 3 -19 0 -14 -18 4 -12 3 -17 -2 -12 -10 12 -33
18 -33 8 0 -3 7 -14 16 -24 12 -13 12 -19 3 -25 -7 -4 -10 -3 -6 3 10 15 -14
31 -43 29 -20 -1 -25 -6 -24 -25 1 -22 0 -22 -12 -6 -12 16 -14 16 -42 -3 -20
-15 -32 -18 -39 -11 -8 8 -13 7 -18 -2 -6 -8 -4 -10 5 -4 9 5 11 4 6 -4 -4 -7
-15 -11 -24 -10 -32 3 -43 -1 -36 -12 4 -7 0 -9 -14 -5 -11 4 -23 2 -27 -4 -3
-6 -11 -8 -16 -5 -5 4 -9 -2 -10 -12 0 -10 -3 -13 -6 -5 -2 6 -13 12 -24 12
-10 0 -19 5 -19 11 0 5 -4 7 -10 4 -6 -3 -10 2 -10 12 0 10 -4 14 -8 8 -4 -5
-14 -10 -22 -10 -8 0 -18 5 -22 10 -5 6 -8 5 -8 -3 0 -7 -4 -10 -10 -7 -5 3
-10 1 -10 -4 0 -6 -5 -11 -11 -11 -5 0 -7 6 -3 13 4 7 3 9 -2 4 -5 -5 -9 -12
-9 -15 -1 -17 -27 -52 -34 -47 -5 2 -8 -3 -7 -13 0 -9 -6 -17 -14 -17 -8 -1
-25 -6 -37 -13 -13 -7 -23 -10 -23 -6 0 3 -6 2 -12 -3 -7 -5 -20 -9 -28 -8 -8
1 -27 -2 -42 -6 -17 -5 -30 -3 -34 3 -5 7 -2 8 7 3 8 -4 5 1 -6 12 -11 11 -26
30 -34 41 -8 12 -18 19 -23 16 -4 -3 -8 -1 -8 4 0 6 -13 15 -30 21 -16 5 -30
13 -30 16 0 3 5 3 10 0 6 -3 10 0 11 7 0 7 2 21 4 31 4 19 -32 40 -49 29 -5
-3 -6 0 -2 6 4 7 2 12 -3 12 -17 0 -13 14 7 27 15 9 19 8 19 -3 0 -7 -5 -10
-10 -7 -5 3 -8 0 -5 -7 2 -7 12 -14 22 -16 12 -2 16 2 12 12 -3 9 1 14 12 14
13 0 14 2 3 9 -10 6 -10 10 -1 13 16 5 23 118 8 118 -6 0 -3 9 8 21 12 13 14
19 5 17 -7 -2 -16 3 -19 11 -3 8 0 11 7 7 6 -4 11 -4 12 1 0 4 2 16 4 26 2 9
-1 17 -6 17 -5 0 -9 5 -9 11 0 5 4 8 8 5 5 -3 9 1 9 9 0 8 -5 15 -11 15 -6 0
-4 5 4 10 8 5 11 10 5 10 -19 0 -32 -15 -30 -32 2 -9 -5 -24 -15 -33 -11 -10
-16 -24 -13 -36 5 -16 8 -18 15 -7 6 9 7 6 3 -9 -5 -19 -3 -22 12 -16 17 7 17
6 1 -11 -10 -9 -18 -21 -18 -25 0 -4 -10 -7 -22 -8 l-23 -1 23 10 c12 6 22 15
22 20 0 5 -4 7 -9 4 -5 -3 -15 2 -22 12 -13 16 -13 16 5 2 18 -14 19 -13 13 3
-4 10 -7 23 -7 28 0 6 -6 7 -12 3 -7 -4 -5 2 5 13 18 21 18 22 0 32 -10 6 -13
11 -6 11 6 0 15 -5 18 -10 4 -6 11 -7 17 -4 5 4 -3 15 -19 25 -20 14 -23 19
-10 19 9 0 17 -4 17 -10 0 -5 4 -10 8 -10 5 0 9 7 9 15 0 8 -4 15 -9 15 -4 0
-8 5 -8 12 0 6 3 8 7 5 3 -4 13 -1 21 6 13 9 14 9 8 0 -4 -7 -2 -13 3 -13 10
0 15 14 12 32 0 4 7 4 16 1 12 -5 14 -3 8 8 -8 12 -6 12 8 0 15 -12 17 -11 17
8 0 12 4 20 8 17 14 -9 67 10 64 23 -2 9 3 9 18 1 16 -9 19 -8 13 6 -5 13 -2
15 16 9 14 -4 23 -2 27 9 3 9 11 13 18 10 6 -3 2 2 -9 11 -20 17 -20 17 4 10
18 -5 22 -4 16 5 -5 9 -4 11 4 6 6 -4 9 -12 6 -17 -11 -16 12 -10 26 8 12 14
12 16 0 8 -10 -5 -12 -4 -7 4 6 9 11 9 24 -1 12 -10 14 -10 8 0 -5 8 1 12 18
12 14 0 26 5 26 11 0 5 -5 7 -12 3 -7 -4 -8 -3 -4 4 4 6 14 8 23 5 12 -5 15
-2 10 10 -4 11 -2 14 8 10 8 -3 12 -10 9 -17 -3 -6 4 0 16 14 12 14 19 18 15
10 -4 -8 3 -4 15 10 12 14 18 18 14 11 -5 -9 4 -6 23 7 17 12 33 19 37 15 3
-3 6 -1 6 5 0 7 6 12 14 12 8 0 18 5 22 12 5 8 2 9 -10 5 -10 -4 -15 -3 -11 4
4 5 15 7 26 4 13 -4 19 -2 19 8 0 11 7 13 22 9 13 -3 19 -1 15 5 -4 6 5 15 19
22 14 6 23 15 20 20 -3 5 16 6 42 4 26 -3 59 -5 74 -6 14 -1 24 -5 21 -9 -2
-5 7 -8 21 -8 14 0 29 -1 34 -2 4 -1 9 6 10 16 3 15 1 16 -17 7 -17 -10 -20
-9 -15 4 5 11 -1 15 -22 16 -16 1 -32 1 -36 0 -5 0 -8 4 -8 9 0 6 -8 10 -17
11 -11 0 -13 3 -5 6 6 2 9 10 6 15 -4 6 -2 8 4 4 6 -3 17 0 25 8 8 8 17 13 19
10 3 -2 11 3 19 13 9 11 10 14 2 9 -7 -4 -13 -4 -13 -1 0 3 14 11 30 16 17 6
30 18 30 26 0 9 6 13 15 9 9 -3 15 0 15 10 0 11 -6 14 -16 10 -8 -3 -12 -2 -9
4 3 6 0 10 -8 10 -7 0 -20 -11 -27 -25 -7 -14 -15 -23 -18 -20 -3 2 1 11 8 20
11 13 10 14 -3 9 -9 -3 -19 -14 -22 -25 -4 -11 -11 -17 -16 -13 -6 3 -13 -4
-16 -15 -5 -18 -8 -19 -21 -9 -9 8 -13 8 -9 2 4 -7 -1 -18 -10 -25 -14 -12
-16 -12 -9 1 4 8 1 7 -8 -3 -14 -19 -102 -35 -91 -18 6 11 -15 9 -34 -3 -9 -6
-12 -5 -7 2 6 10 -42 27 -76 25 -10 0 -18 3 -18 7 0 3 -10 6 -22 5 -13 -1 -31
2 -40 7 -12 6 -18 5 -18 -3 0 -8 -4 -8 -12 -2 -7 6 -20 11 -28 11 -55 4 -135
11 -135 12 0 1 -29 3 -65 5 -40 3 -70 0 -79 -8 -9 -7 -12 -8 -8 -1 4 7 -4 11
-22 10 -16 -1 -27 -4 -25 -7 2 -4 -3 -9 -11 -13 -8 -3 -14 0 -12 6 1 7 -4 13
-10 14 -7 1 -17 2 -21 3 -4 0 -8 10 -9 22 -2 17 1 18 13 8 8 -6 16 -10 19 -8
2 3 -9 13 -26 24 -18 12 -27 26 -24 34 4 11 1 10 -13 -2 -15 -14 -19 -14 -19
-2 0 8 4 12 9 9 4 -3 8 2 8 10 0 8 6 13 13 10 7 -2 13 4 14 16 1 11 -3 20 -8
20 -6 0 -7 -4 -4 -10 3 -5 0 -10 -9 -10 -8 0 -16 -4 -18 -10 -1 -5 -14 0 -28
11 -14 11 -18 18 -10 17 8 -2 18 -7 22 -13 4 -5 9 -7 13 -4 9 10 -22 61 -51
84 -19 15 -23 22 -11 22 9 0 14 -4 11 -9 -7 -10 7 -10 24 0 15 10 -24 31 -51
26 -9 -1 -15 2 -12 6 6 9 38 6 57 -6 6 -4 8 -3 5 3 -4 6 0 16 9 23 8 7 13 19
10 27 -3 7 0 13 6 13 6 0 9 2 6 5 -7 8 -58 -16 -58 -27 0 -4 7 -8 16 -8 8 0
12 -5 8 -11 -4 -7 -11 -6 -21 4 -12 11 -12 19 -4 35 17 32 13 37 -8 11 -10
-13 -17 -29 -14 -35 2 -6 -3 -14 -12 -18 -11 -4 -14 -2 -8 7 4 6 8 19 10 27 1
8 7 16 13 18 7 3 5 11 -6 23 -10 11 -12 19 -6 19 7 0 12 4 12 9 0 4 -12 6 -27
3 -16 -2 -25 -2 -22 2 3 3 18 7 32 8 27 2 33 9 20 21 -3 4 -12 2 -19 -4 -10
-8 -21 -5 -44 11 -16 12 -30 24 -30 26 0 3 14 -4 31 -16 38 -28 50 -20 13 9
-15 11 -21 21 -15 21 7 0 9 4 6 10 -3 5 1 23 10 39 10 20 11 32 4 36 -6 4 -13
4 -16 1 -4 -3 0 -6 7 -6 10 0 10 -4 -2 -17 -9 -10 -18 -25 -21 -33 -4 -12 -6
-12 -6 2 -1 9 3 19 8 23 6 3 9 14 8 25 -1 15 -7 19 -24 15 -14 -2 -21 0 -17 6
3 6 8 8 11 5 3 -3 18 1 34 9 27 15 47 6 34 -14 -3 -5 6 -22 20 -38 24 -27 25
-27 22 -5 -2 13 -8 27 -14 30 -5 4 -9 16 -8 28 1 18 -3 20 -29 17 -24 -2 -28
-1 -18 9 7 7 30 14 50 14 34 1 95 7 212 20 25 3 65 7 90 10 25 3 77 6 117 8
39 2 77 7 84 12 7 4 10 3 6 -2 -3 -5 17 -9 44 -9 27 0 49 2 49 5 0 3 16 5 35
5 19 0 35 -3 35 -8 0 -4 9 -3 20 3 14 8 20 8 20 0 0 -7 5 -8 13 -3 18 11 51
10 59 -2 5 -6 8 -5 8 4 0 9 4 10 13 4 11 -8 18 -9 45 -4 4 1 0 6 -8 11 -9 6
-10 10 -3 10 7 0 17 -8 22 -17 6 -10 11 -13 11 -7 0 14 30 14 30 0 0 -6 5 -4
10 4 5 8 10 10 10 5 0 -6 9 -11 21 -12 13 -1 19 3 16 11 -3 7 1 13 8 13 7 0
11 -6 8 -13 -3 -9 6 -12 34 -10 21 1 47 -3 58 -10 11 -6 30 -10 43 -8 14 2 21
0 17 -6 -4 -6 1 -7 11 -3 10 3 15 2 12 -3 -4 -5 4 -9 17 -9 13 0 21 3 18 8 -2
4 0 7 4 7 5 0 17 -14 27 -30 9 -17 21 -28 25 -25 5 2 17 -5 27 -16 10 -11 24
-17 31 -15 7 3 15 1 18 -4 4 -6 -4 -10 -17 -10 -21 -1 -21 -2 -5 -11 9 -6 15
-14 12 -19 -3 -5 -1 -11 4 -15 6 -3 8 -12 5 -19 -3 -7 1 -16 9 -19 16 -6 17 9
4 31 -5 6 -4 12 0 12 5 0 15 -6 23 -12 12 -11 12 -10 1 4 -7 9 -10 21 -7 26 3
5 -3 17 -14 27 -11 10 -17 23 -13 29 3 6 3 8 -1 4 -4 -3 -21 8 -37 25 -16 18
-29 28 -28 22 4 -26 -3 -28 -16 -5 -8 14 -14 19 -15 11 0 -11 -4 -10 -14 4 -8
11 -27 19 -46 20 -17 1 -36 8 -41 16 -5 8 -9 9 -9 3 0 -7 -7 -15 -16 -18 -14
-5 -15 -4 -4 9 10 12 10 15 -4 15 -10 0 -14 -5 -10 -11 4 -7 1 -10 -7 -7 -8 3
-13 11 -12 17 2 6 -2 11 -7 11 -6 0 -10 -5 -10 -11 0 -8 -4 -8 -15 1 -8 6 -19
9 -24 6 -5 -4 -12 -2 -15 3 -6 10 -24 9 -41 -1 -15 -9 -70 -3 -68 8 1 5 -19 8
-43 7 -32 -1 -42 2 -37 10 4 7 -5 4 -20 -6 -25 -16 -26 -16 -20 0 6 15 4 16
-8 6 -8 -7 -20 -8 -27 -4 -8 4 -25 6 -39 3 -20 -4 -24 -2 -18 8 6 10 4 11 -6
4 -8 -4 -26 -9 -41 -9 -15 0 -30 -4 -34 -8 -4 -4 -13 -2 -21 4 -10 9 -13 8
-13 -2 0 -12 -2 -12 -9 0 -5 8 -16 11 -25 8 -9 -4 -16 -2 -16 4 0 6 -6 6 -19
0 -10 -6 -21 -8 -24 -4 -4 3 -13 1 -20 -5 -8 -7 -17 -9 -21 -5 -11 11 -46 10
-46 -1 0 -7 -3 -7 -8 1 -5 8 -13 9 -22 3 -8 -5 -22 -4 -33 2 -15 7 -18 7 -12
-2 5 -8 0 -11 -16 -10 -13 1 -26 1 -29 0 -3 -1 -21 -4 -40 -6 -19 -2 -53 -6
-75 -9 -22 -4 -45 -7 -52 -7 -7 -1 -14 -7 -17 -15 -3 -7 -11 -13 -18 -13 -9 0
-9 3 2 11 11 8 9 9 -10 3 -14 -4 -27 -11 -28 -15 -2 -5 -9 -6 -14 -3 -7 5 -8
2 -3 -6 6 -9 2 -10 -16 -5 -30 9 -37 17 -23 22 20 7 -7 63 -33 69 -13 4 -23
10 -23 16 0 5 -4 7 -9 4 -5 -4 -4 -17 2 -31 10 -21 14 -23 23 -10 10 14 12 14
18 0 3 -9 2 -13 -4 -10 -6 3 -10 1 -10 -4 0 -6 7 -11 15 -11 8 0 15 -5 15 -12
0 -6 -3 -8 -7 -5 -3 4 -15 0 -25 -10 -13 -11 -18 -12 -18 -3 0 10 -3 10 -14 1
-11 -9 -16 -9 -22 0 -4 7 -3 9 4 5 6 -3 13 -2 17 4 3 5 1 10 -6 10 -7 0 -9 3
-6 6 4 4 13 2 20 -4 8 -7 17 -9 20 -5 10 9 -31 35 -44 27 -8 -5 -8 -1 0 14 9
17 7 24 -15 41 -15 12 -22 21 -15 21 6 0 11 5 11 11 0 5 -5 7 -12 3 -6 -4 -8
-3 -4 4 3 5 0 13 -6 15 -9 4 -10 6 -1 6 6 1 14 -3 18 -9 3 -5 12 -7 20 -3 8 3
15 0 15 -7 0 -6 -4 -8 -10 -5 -16 10 -12 -11 5 -25 8 -7 15 -9 15 -5 0 4 7 2
15 -5 13 -10 15 -9 15 9 0 11 -4 21 -10 21 -5 0 -10 7 -10 15 0 9 -7 18 -16
22 -8 3 -13 11 -11 18 3 6 -8 26 -24 43 -17 18 -27 36 -24 42 3 5 -4 29 -17
52 -13 24 -24 44 -24 46 -1 1 -11 4 -22 7 -28 5 -35 -19 -12 -47 13 -18 16
-28 8 -39 -8 -11 -9 -11 -4 3 6 19 -9 34 -19 18 -3 -5 -11 -10 -18 -10 -6 0
-2 7 9 16 18 15 18 15 -5 8 -17 -4 -22 -3 -18 7 2 8 10 13 16 11 7 -1 9 2 6 8
-4 6 -13 9 -21 6 -8 -3 -11 0 -7 10 4 10 9 12 16 5 6 -6 16 -3 29 12 11 12 16
16 12 8 -5 -9 -3 -12 5 -7 17 11 -39 88 -59 80 -26 -11 -60 -13 -54 -3 3 5 0
9 -7 9 -7 0 -10 3 -7 6 4 3 15 1 25 -4 20 -10 43 -5 43 10 0 5 -8 7 -17 4 -10
-3 -25 -1 -33 5 -13 9 -12 10 2 5 24 -7 30 7 13 30 -14 17 -14 17 -9 1 10 -27
-17 -17 -43 17 -12 16 -20 33 -17 37 6 11 14 12 13 2 -3 -21 2 -33 13 -27 6 4
8 3 4 -4 -3 -6 -1 -14 5 -18 8 -4 9 -3 5 4 -4 7 -2 12 5 12 7 0 4 7 -7 16 -10
8 -13 13 -6 9 16 -8 16 3 -1 19 -7 7 -20 12 -30 10 -11 -1 -17 4 -17 17 0 10
-4 19 -9 19 -5 0 -12 11 -15 25 -4 14 -13 25 -21 25 -8 0 -15 5 -15 11 0 5
-10 9 -22 7 -11 -2 -22 3 -24 10 -1 7 0 8 3 2 2 -5 9 -8 14 -4 14 8 -33 43
-50 36 -8 -3 -12 -1 -8 5 4 5 -5 15 -19 22 -14 6 -22 16 -19 21 3 6 -1 10 -9
10 -9 0 -13 6 -10 14 6 16 -29 31 -47 20 -7 -4 -9 -3 -5 4 7 13 -61 82 -81 82
-7 0 -16 7 -19 15 -4 8 -10 12 -16 9 -5 -3 -12 4 -15 16 -4 17 -11 21 -29 17
-20 -3 -22 -2 -13 9 12 14 5 17 -43 17 -10 0 -18 3 -18 7 0 16 -38 51 -45 40
-3 -5 -1 -10 5 -10 7 0 10 -5 8 -11 -4 -13 -23 -13 -24 1 -1 6 -2 15 -3 21 0
5 -6 7 -11 4 -6 -4 -8 -12 -4 -18 3 -7 -1 -3 -10 7 -8 10 -13 23 -10 27 3 5
-2 9 -10 9 -15 0 -21 12 -17 33 1 5 -3 6 -9 2 -11 -7 2 -39 20 -50 6 -3 10
-11 10 -16 0 -6 -12 3 -26 20 -14 17 -30 29 -34 26 -5 -3 -13 2 -18 11 -5 9
-12 15 -15 15 -24 -3 -38 1 -52 16 -9 9 -33 18 -53 20 -21 2 -42 4 -49 5 -7 1
-10 5 -7 10 3 5 11 5 17 1 7 -4 6 1 -2 11 -10 12 -22 15 -42 11 -16 -4 -30 -1
-34 5 -5 8 -12 5 -21 -7 -14 -17 -14 -17 -12 1 2 10 -3 21 -9 23 -7 3 -13 0
-13 -6 0 -21 -16 -11 -17 11 -2 18 0 20 7 8 5 -8 10 -10 10 -5 -1 6 -8 19 -17
30 -13 16 -15 17 -10 3 5 -13 1 -18 -13 -18 -11 0 -20 5 -20 10 0 6 -5 10 -11
10 -6 0 -8 -7 -5 -16 6 -14 4 -15 -9 -4 -15 12 -14 15 7 26 22 13 22 13 -7 9
-16 -2 -31 -4 -33 -4 -1 -1 2 -11 8 -23 10 -21 10 -21 -3 -5 -18 21 -31 22
-23 1 3 -8 2 -13 -3 -9 -5 3 -12 -1 -15 -7 -3 -7 -3 -2 0 11 4 16 3 21 -5 17
-20 -13 -52 -16 -45 -4 4 6 1 9 -7 6 -8 -3 -13 -11 -11 -17 2 -9 -3 -9 -16 -2
-13 7 -23 6 -32 -2 -9 -9 -8 -5 1 11 8 12 15 18 17 12 2 -5 8 -10 13 -10 6 0
8 4 5 9 -4 5 5 8 19 6 14 -1 25 2 25 8 0 5 7 4 15 -3 10 -9 15 -9 15 -1 0 12
-8 14 -62 11 -36 -1 -50 11 -28 25 6 3 10 12 10 18 0 7 -5 4 -11 -5 -5 -10
-15 -18 -20 -18 -6 0 -7 5 -3 11 5 8 1 8 -14 0 -30 -16 -42 -14 -36 7 5 14 4
14 -4 2 -7 -9 -8 -18 -1 -26 7 -8 6 -14 -1 -19 -6 -4 -9 -1 -8 6 2 6 -3 14
-10 16 -8 3 -10 -1 -5 -14 4 -13 0 -11 -16 7 l-22 25 5 -25 c3 -14 3 -19 0
-12 -3 6 -10 10 -15 7 -5 -4 -6 2 -3 12 5 16 3 15 -11 -2 -17 -20 -17 -20 -10
5 6 20 5 22 -5 13 -7 -6 -19 -9 -26 -6 -10 3 -12 0 -8 -10 3 -8 1 -18 -4 -21
-5 -3 -8 6 -6 19 1 14 -3 28 -9 32 -18 11 -49 14 -43 5 3 -5 -1 -9 -9 -9 -8 0
-12 4 -9 9 9 14 -14 9 -30 -8 -9 -8 -16 -11 -16 -5 0 13 33 31 67 37 18 3 23
1 17 -8 -5 -8 -1 -7 11 2 10 8 16 10 12 3 -4 -7 2 -18 15 -28 21 -14 24 -14
34 0 9 12 13 13 17 3 2 -7 8 -10 12 -5 12 10 -26 36 -43 29 -11 -4 -11 -6 0
-13 9 -6 9 -9 1 -9 -7 0 -17 9 -23 21 -7 11 -14 18 -17 15 -3 -3 -12 2 -20 12
-8 9 -12 12 -9 5 10 -19 -12 -25 -23 -6 -6 10 -11 13 -11 7 0 -7 -12 -19 -26
-29 -15 -10 -23 -12 -19 -4 6 8 4 11 -7 7 -19 -8 -45 7 -29 16 6 4 11 2 11 -4
0 -6 5 -8 11 -4 12 7 -13 26 -39 30 -10 2 -11 -1 -1 -12 14 -17 -2 -19 -19 -2
-8 8 -15 8 -27 -2 -15 -12 -15 -14 -1 -22 9 -5 16 -14 16 -21 0 -7 -4 -6 -10
3 -5 8 -10 11 -10 5 0 -5 -4 -3 -10 5 -5 9 -5 19 1 26 7 8 7 14 0 18 -5 4 -13
2 -16 -4 -5 -8 -11 -7 -21 1 -12 10 -16 8 -20 -9 -4 -13 -14 -20 -27 -20 -28
2 -49 17 -40 31 4 6 1 7 -8 1 -20 -13 -131 -13 -149 0 -13 9 -13 9 -2 -5z
m271 -6 c14 10 14 10 3 -5 -8 -9 -11 -22 -7 -28 3 -5 4 -10 2 -10 -3 0 -13 12
-22 28 -10 15 -12 21 -5 15 11 -10 17 -10 29 0z m86 -39 c19 -15 19 -15 -2 -4
-13 6 -23 7 -23 3 0 -10 -20 19 -20 30 0 4 6 3 13 -3 6 -6 21 -18 32 -26z
m-185 -6 c10 -21 10 -21 -3 -6 -11 14 -16 15 -27 5 -12 -10 -12 -9 -1 6 17 22
18 22 31 -5z m50 -2 c0 -2 -7 -9 -15 -16 -13 -11 -14 -10 -9 4 5 14 24 23 24
12z m45 -6 c17 -8 16 -8 -7 -7 -16 1 -28 5 -28 9 0 10 9 9 35 -2z m82 -6 c-3
-3 -12 -4 -19 -1 -8 3 -5 6 6 6 11 1 17 -2 13 -5z m43 1 c0 -2 -10 -9 -22 -15
-22 -11 -22 -10 -4 4 21 17 26 19 26 11z m-320 -12 c0 -5 -5 -15 -10 -23 -7
-12 -9 -10 -7 8 1 19 17 33 17 15z m240 -3 c0 -5 -4 -10 -10 -10 -5 0 -10 5
-10 10 0 6 5 10 10 10 6 0 10 -4 10 -10z m181 -22 c-10 -11 -11 -9 -5 6 6 15
4 17 -6 11 -9 -6 -11 -4 -5 4 5 9 10 10 18 2 8 -8 7 -14 -2 -23z m-246 13 c3
-5 2 -12 -3 -15 -5 -3 -9 1 -9 9 0 17 3 19 12 6z m-260 -10 c-9 -8 -36 -10
-30 -2 2 4 11 8 20 8 8 0 13 -3 10 -6z m221 -17 c1 -9 0 -13 -4 -10 -3 4 -7
14 -8 22 -1 9 0 13 4 10 3 -4 7 -14 8 -22z m507 12 c3 -8 -1 -20 -9 -26 -11
-10 -14 -10 -14 -1 0 7 -5 9 -11 6 -6 -4 -5 2 3 14 15 25 24 26 31 7z m-543
-10 c0 -3 -4 -8 -10 -11 -5 -3 -10 -1 -10 4 0 6 5 11 10 11 6 0 10 -2 10 -4z
m-260 -10 c0 -2 -6 -9 -14 -15 -11 -9 -16 -9 -22 0 -4 7 -3 9 4 5 6 -3 13 -2
17 4 6 10 15 14 15 6z m675 -15 c3 -5 2 -12 -3 -15 -5 -3 -9 1 -9 9 0 17 3 19
12 6z m-755 -5 c0 -2 -9 -6 -20 -9 -11 -3 -18 -1 -14 4 5 9 34 13 34 5z m-552
-33 c4 -5 16 -15 27 -22 16 -10 16 -11 2 -7 -12 4 -21 -1 -28 -17 -9 -20 -9
-20 -4 5 4 22 2 26 -10 22 -10 -4 -15 0 -15 11 0 9 -5 13 -10 10 -6 -4 -8 -10
-5 -15 3 -4 -2 -11 -11 -14 -8 -3 -13 -9 -11 -13 3 -5 -8 -8 -23 -8 -16 -1
-26 3 -23 8 3 5 0 7 -8 5 -8 -3 -13 -15 -13 -27 2 -25 -8 -19 -13 7 -3 24 33
47 41 27 3 -9 12 -12 21 -9 14 6 13 8 -2 21 -16 13 -16 13 5 3 15 -7 22 -7 22
0 0 5 -6 10 -12 11 -7 1 -2 4 12 8 31 9 50 8 58 -6z m1682 2 c0 -12 -19 -12
-23 0 -4 9 -1 12 9 8 7 -3 14 -7 14 -8z m-1236 -6 c-4 -7 -44 0 -44 7 0 2 11
3 24 2 14 -1 23 -5 20 -9z m1186 7 c0 -3 -4 -8 -10 -11 -5 -3 -10 -1 -10 4 0
6 5 11 10 11 6 0 10 -2 10 -4z m-1529 -39 c-10 -9 -11 -8 -5 6 3 10 9 15 12
12 3 -3 0 -11 -7 -18z m1716 2 c-10 -6 -14 -15 -10 -22 4 -7 -2 -5 -13 3 -29
22 -30 24 -12 17 10 -3 20 -2 23 3 4 6 12 10 18 10 7 0 4 -5 -6 -11z m-1842
-9 c3 -6 -1 -7 -9 -4 -18 7 -21 14 -7 14 6 0 13 -4 16 -10z m165 6 c0 -2 -7
-9 -15 -16 -13 -11 -14 -10 -9 4 5 14 24 23 24 12z m34 -4 c3 -5 -1 -9 -9 -9
-8 0 -15 4 -15 9 0 4 4 8 9 8 6 0 12 -4 15 -8z m119 1 c3 -5 -6 -9 -20 -10
-19 -1 -22 1 -12 8 17 11 26 11 32 2z m-253 -17 c0 -2 -7 -6 -15 -10 -8 -3
-15 -1 -15 4 0 6 7 10 15 10 8 0 15 -2 15 -4z m170 0 c0 -2 -7 -7 -16 -10 -8
-3 -12 -2 -9 4 6 10 25 14 25 6z m-445 -15 c3 -5 2 -12 -3 -15 -5 -3 -9 1 -9
9 0 17 3 19 12 6z m2185 -33 c0 -16 -16 -7 -34 19 l-20 27 27 -20 c14 -10 27
-22 27 -26z m-2167 -13 c-7 -21 -12 -19 -10 4 0 11 5 18 9 15 4 -3 5 -11 1
-19z m107 21 c0 -3 -4 -8 -10 -11 -5 -3 -10 -1 -10 4 0 6 5 11 10 11 6 0 10
-2 10 -4z m2140 -38 c0 -11 -12 -10 -30 2 -12 7 -10 9 8 7 12 0 22 -5 22 -9z
m-2367 -14 c7 1 9 1 4 -1 -4 -3 -5 -9 -1 -14 3 -5 0 -9 -5 -9 -6 0 -11 6 -11
13 0 9 -2 9 -9 -1 -7 -11 -9 -10 -14 3 -4 9 -3 13 3 10 6 -3 10 0 11 7 0 9 2
10 5 1 3 -7 11 -11 17 -9z m84 9 c-4 -3 -1 -13 6 -22 11 -14 10 -14 -5 -2 -16
12 -16 31 -1 31 4 0 3 -3 0 -7z m2240 -18 c0 -8 -4 -15 -9 -15 -10 0 -11 14
-1 23 9 10 10 9 10 -8z m-2372 -5 c3 -5 2 -10 -4 -10 -5 0 -13 5 -16 10 -3 6
-2 10 4 10 5 0 13 -4 16 -10z m110 1 c3 -5 2 -12 -3 -15 -5 -3 -9 1 -9 9 0 17
3 19 12 6z m2333 -12 c8 -12 8 -20 2 -24 -6 -4 -9 -2 -8 4 2 5 -5 16 -16 24
-14 10 -15 14 -4 14 9 0 20 -8 26 -18z m-2471 -19 c-1 -10 -5 -17 -9 -14 -4 3
-4 12 -1 21 5 12 3 14 -7 8 -9 -5 -11 -4 -6 4 10 16 25 4 23 -19z m113 5 c7
-9 8 -15 2 -15 -5 0 -12 7 -16 15 -3 8 -4 15 -2 15 2 0 9 -7 16 -15z m-48 -18
c-2 -10 -5 -16 -6 -15 -1 2 -7 10 -13 18 -10 13 -8 16 6 16 13 0 17 -6 13 -19z
m-32 -31 c-7 -9 -18 -16 -24 -16 -6 0 -3 5 7 11 9 5 17 14 17 20 0 5 -12 2
-27 -7 -26 -15 -27 -15 -8 1 11 9 19 22 17 28 -2 7 4 4 14 -5 14 -14 15 -20 4
-32z m130 38 c0 -8 -19 -13 -24 -6 -3 5 1 9 9 9 8 0 15 -2 15 -3z m-320 -43
c3 -2 -3 -1 -12 2 -20 7 -35 -9 -16 -16 9 -4 10 -6 1 -6 -16 -1 -24 14 -17 33
6 16 14 14 44 -13z m2717 23 c-3 -3 -12 -4 -19 -1 -8 3 -5 6 6 6 11 1 17 -2
13 -5z m-2581 -79 c-3 -9 -10 -13 -16 -10 -6 3 -13 -1 -16 -10 -5 -13 -9 -14
-15 -4 -11 18 -2 28 21 24 13 -3 20 2 20 12 0 9 3 14 6 10 4 -3 4 -13 0 -22z
m-306 -49 c14 -18 14 -18 -7 -6 -12 8 -19 18 -16 23 3 4 6 7 7 5 1 -2 8 -12
16 -22z m3065 3 c-4 -5 1 -10 9 -10 29 -3 34 -4 41 -11 4 -4 -5 -5 -21 -2 -33
6 -37 9 -40 29 -1 8 2 13 7 9 5 -3 7 -10 4 -15z m-3015 1 c0 -5 -2 -10 -4 -10
-3 0 -8 5 -11 10 -3 6 -1 10 4 10 6 0 11 -4 11 -10z m157 -16 c-3 -3 -12 -4
-19 -1 -8 3 -5 6 6 6 11 1 17 -2 13 -5z m-157 -14 c0 -5 -4 -10 -10 -10 -5 0
-10 5 -10 10 0 6 5 10 10 10 6 0 10 -4 10 -10z m63 2 c4 9 6 9 6 1 2 -20 -16
-24 -30 -5 -13 15 -12 16 3 4 13 -10 17 -10 21 0z m96 -18 c2 -2 -6 -2 -18 -1
-11 1 -23 7 -26 14 -4 11 0 11 18 2 12 -6 24 -13 26 -15z m-185 0 c4 -10 2
-13 -6 -8 -7 5 -9 2 -5 -8 4 -11 0 -15 -11 -14 -9 2 -18 9 -20 17 -3 12 -2 12
6 0 8 -11 11 -9 17 8 8 25 11 26 19 5z m80 -23 c-2 -3 -10 1 -16 7 -18 18 -32
14 -17 -4 17 -20 20 -44 7 -44 -6 0 -8 7 -4 15 3 8 -2 18 -10 23 -9 5 -12 15
-8 25 5 15 8 15 29 -1 13 -9 21 -19 19 -21z m-54 -22 c0 -5 -4 -9 -8 -9 -5 0
-9 7 -9 15 0 8 4 12 9 9 4 -3 8 -9 8 -15z m158 -14 c-3 -3 -9 2 -12 12 -6 14
-5 15 5 6 7 -7 10 -15 7 -18z m-344 -1 c3 -8 2 -12 -4 -9 -6 3 -10 10 -10 16
0 14 7 11 14 -7z m156 12 c0 -2 -8 -10 -17 -17 -16 -13 -17 -12 -4 4 13 16 21
21 21 13z m3160 0 c0 -2 -8 -10 -17 -17 -16 -13 -17 -12 -4 4 13 16 21 21 21
13z m-3215 -15 c3 -5 2 -12 -3 -15 -5 -3 -9 1 -9 9 0 17 3 19 12 6z m65 -11
c0 -5 -5 -10 -11 -10 -5 0 -7 5 -4 10 3 6 8 10 11 10 2 0 4 -4 4 -10z m56 -17
c-8 -8 -56 -11 -51 -3 3 4 16 8 30 8 14 0 24 -3 21 -5z m244 -3 c0 -5 -5 -10
-11 -10 -5 0 -7 5 -4 10 3 6 8 10 11 10 2 0 4 -4 4 -10z m120 6 c0 -2 -7 -7
-16 -10 -8 -3 -12 -2 -9 4 6 10 25 14 25 6z m-240 -21 c0 -7 -30 -13 -34 -7
-3 4 4 9 15 9 10 1 19 0 19 -2z m-103 -27 c-3 -8 -6 -5 -6 6 -1 11 2 17 5 13
3 -3 4 -12 1 -19z m-301 0 c4 -6 3 -8 -4 -4 -6 3 -13 2 -17 -4 -3 -5 -11 -10
-18 -10 -6 0 -2 7 9 15 23 18 21 17 30 3z m284 -4 c0 -8 -19 -13 -24 -6 -3 5
1 9 9 9 8 0 15 -2 15 -3z m140 -8 c0 -3 -4 -8 -10 -11 -5 -3 -10 -1 -10 4 0 6
5 11 10 11 6 0 10 -2 10 -4z m120 0 c0 -3 -4 -8 -10 -11 -5 -3 -10 -1 -10 4 0
6 5 11 10 11 6 0 10 -2 10 -4z m3007 -38 c-3 -7 -5 -2 -5 12 0 14 2 19 5 13 2
-7 2 -19 0 -25z m-3556 5 c13 -16 12 -17 -3 -4 -17 13 -22 21 -14 21 2 0 10
-8 17 -17z m329 13 c0 -2 -7 -7 -16 -10 -8 -3 -12 -2 -9 4 6 10 25 14 25 6z
m174 -5 c-9 -9 -34 -9 -34 -1 0 5 9 8 20 7 10 -1 17 -3 14 -6z m-549 -29 c-3
-3 -11 0 -18 7 -9 10 -8 11 6 5 10 -3 15 -9 12 -12z m470 8 c3 -5 1 -10 -4
-10 -6 0 -11 5 -11 10 0 6 2 10 4 10 3 0 8 -4 11 -10z m106 -17 c13 -16 12
-17 -3 -4 -10 7 -18 15 -18 17 0 8 8 3 21 -13z m-641 -64 c0 -5 -4 -9 -8 -9
-5 0 -9 7 -9 15 0 8 4 12 9 9 4 -3 8 -9 8 -15z m440 17 c0 -2 -6 -9 -14 -15
-11 -9 -16 -9 -22 0 -4 7 -3 9 4 5 6 -3 13 -2 17 4 6 10 15 14 15 6z m-20 -56
c0 -5 -5 -10 -11 -10 -5 0 -7 5 -4 10 3 6 8 10 11 10 2 0 4 -4 4 -10z m-451
-3 c-2 -1 -13 -9 -24 -17 -19 -14 -19 -14 -6 3 7 9 18 17 24 17 6 0 8 -1 6 -3z
m265 -23 c3 -8 2 -12 -4 -9 -6 3 -10 10 -10 16 0 14 7 11 14 -7z m304 -19 c-3
-3 -9 2 -12 12 -6 14 -5 15 5 6 7 -7 10 -15 7 -18z m-574 7 c3 -5 -1 -9 -9 -9
-8 0 -12 4 -9 9 3 4 7 8 9 8 2 0 6 -4 9 -8z m670 -8 c3 -8 2 -12 -4 -9 -6 3
-10 10 -10 16 0 14 7 11 14 -7z m3226 -33 c0 -5 -11 -8 -25 -8 -13 0 -22 3
-19 8 3 5 14 9 25 9 10 0 19 -4 19 -9z m-3965 -21 c3 -6 -1 -7 -9 -4 -18 7
-21 14 -7 14 6 0 13 -4 16 -10z m555 4 c0 -8 -19 -13 -24 -6 -3 5 1 9 9 9 8 0
15 -2 15 -3z m3418 -13 c11 -7 10 -10 -3 -15 -9 -3 -21 -4 -25 -1 -5 3 -12 -4
-15 -16 -4 -11 -9 -18 -12 -15 -7 6 24 56 35 56 4 0 13 -4 20 -9z m-3368 -11
c0 -5 -5 -10 -11 -10 -5 0 -7 5 -4 10 3 6 8 10 11 10 2 0 4 -4 4 -10z m34 2
c3 -5 -1 -9 -9 -9 -8 0 -12 4 -9 9 3 4 7 8 9 8 2 0 6 -4 9 -8z m-667 -39 c-10
-3 -14 -10 -11 -16 5 -8 2 -8 -7 1 -21 19 -31 14 -19 -10 11 -22 10 -22 -4 -4
-20 25 -14 33 26 33 18 0 25 -2 15 -4z m588 -3 c3 -5 1 -10 -4 -10 -6 0 -11 5
-11 10 0 6 2 10 4 10 3 0 8 -4 11 -10z m-648 -36 c-4 -4 3 -15 15 -25 11 -11
16 -19 10 -19 -6 0 -14 5 -17 10 -4 6 -11 7 -17 4 -7 -4 -8 -2 -4 4 4 7 2 12
-4 12 -6 0 -8 5 -5 10 3 6 11 10 17 10 6 0 8 -3 5 -6z m4107 -66 c-3 -4 3 -8
13 -9 10 0 13 -3 6 -5 -7 -3 -10 -13 -7 -22 5 -15 4 -15 -6 1 -6 9 -14 15 -18
13 -4 -3 -8 3 -8 13 0 10 6 18 13 18 7 0 10 -4 7 -9z m-4094 -18 c0 -5 -4 -10
-10 -10 -5 0 -10 5 -10 10 0 6 5 10 10 10 6 0 10 -4 10 -10z m16 -27 c-10 -10
-19 5 -10 18 6 11 8 11 12 0 2 -7 1 -15 -2 -18z m-63 0 c-7 -2 -19 -2 -25 0
-7 3 -2 5 12 5 14 0 19 -2 13 -5z m30 -40 c-8 -21 -20 -15 -18 10 4 32 4 33
14 18 5 -8 7 -20 4 -28z m4134 5 c-3 -8 -6 -5 -6 6 -1 11 2 17 5 13 3 -3 4
-12 1 -19z m-4100 -6 c0 -10 -6 -19 -13 -19 -9 0 -9 5 -1 19 7 10 13 18 14 18
1 0 1 -8 0 -18z m33 8 c0 -5 -2 -10 -4 -10 -3 0 -8 5 -11 10 -3 6 -1 10 4 10
6 0 11 -4 11 -10z m4095 0 c3 -5 1 -10 -4 -10 -6 0 -11 5 -11 10 0 6 2 10 4
10 3 0 8 -4 11 -10z m-4226 -27 c-6 -7 -15 -10 -20 -7 -13 8 -3 21 15 21 12 0
13 -4 5 -14z m161 7 c0 -5 -2 -10 -4 -10 -3 0 -8 5 -11 10 -3 6 -1 10 4 10 6
0 11 -4 11 -10z m60 5 c0 -7 -30 -13 -34 -7 -3 4 4 9 15 9 10 1 19 0 19 -2z
m100 1 c0 -3 -4 -8 -10 -11 -5 -3 -10 -1 -10 4 0 6 5 11 10 11 6 0 10 -2 10
-4z m-286 -22 c3 -8 2 -12 -4 -9 -6 3 -10 10 -10 16 0 14 7 11 14 -7z m223 -9
c0 -8 -4 -12 -9 -9 -5 3 -6 10 -3 15 9 13 12 11 12 -6z m223 11 c0 -3 -4 -8
-10 -11 -5 -3 -10 -1 -10 4 0 6 5 11 10 11 6 0 10 -2 10 -4z m-500 -46 c0 -5
-2 -10 -4 -10 -3 0 -8 5 -11 10 -3 6 -1 10 4 10 6 0 11 -4 11 -10z m345 0 c3
-6 -1 -7 -9 -4 -18 7 -21 14 -7 14 6 0 13 -4 16 -10z m3929 -40 c-6 -6 -10 -3
-10 10 0 13 4 16 10 10 7 -7 7 -13 0 -20z m-4359 -42 c-2 -16 -6 -32 -10 -36
-5 -4 -6 0 -2 10 3 9 3 19 -1 22 -11 12 -10 33 3 33 7 0 11 -11 10 -29z m4444
-54 c-5 -6 -6 -14 -2 -17 3 -4 1 -7 -6 -7 -8 0 -10 7 -6 21 5 15 4 19 -5 14
-9 -6 -9 -2 1 16 12 23 12 23 19 4 4 -11 4 -25 -1 -31z m-4481 -19 c-3 -3 -9
2 -12 12 -6 14 -5 15 5 6 7 -7 10 -15 7 -18z m5826 -16 c-3 -5 0 -9 7 -9 7 0
9 -3 6 -7 -9 -9 -48 28 -41 39 3 5 12 4 20 -3 7 -6 11 -15 8 -20z m-5360 13
c3 -5 -1 -9 -9 -9 -8 0 -12 4 -9 9 3 4 7 8 9 8 2 0 6 -4 9 -8z m16 -62 c0 -5
-2 -10 -4 -10 -3 0 -8 5 -11 10 -3 6 -1 10 4 10 6 0 11 -4 11 -10z m5394 1 c3
-5 -1 -14 -8 -20 -12 -10 -14 -9 -11 6 2 10 4 19 4 21 2 5 10 2 15 -7z m-5399
-41 c3 -5 1 -10 -4 -10 -6 0 -11 5 -11 10 0 6 2 10 4 10 3 0 8 -4 11 -10z m82
-65 c0 -8 -4 -12 -9 -9 -5 3 -6 10 -3 15 9 13 12 11 12 -6z m-628 -21 c4 3 8
-1 8 -8 0 -11 -4 -12 -18 -3 -10 6 -15 16 -12 21 4 6 8 5 11 -2 2 -7 7 -10 11
-8z m491 10 c0 -8 -19 -13 -24 -6 -3 5 1 9 9 9 8 0 15 -2 15 -3z m40 -44 c0
-5 -2 -10 -4 -10 -3 0 -8 5 -11 10 -3 6 -1 10 4 10 6 0 11 -4 11 -10z m4040 6
c0 -3 -4 -8 -10 -11 -5 -3 -10 -1 -10 4 0 6 5 11 10 11 6 0 10 -2 10 -4z
m-4587 -37 l22 -21 -22 11 c-12 6 -23 8 -26 3 -2 -4 -2 -2 -1 5 2 6 -2 14 -9
17 -9 3 -8 5 1 5 7 1 23 -9 35 -20z m4607 12 c0 -6 -4 -12 -8 -15 -5 -3 -9 1
-9 9 0 8 4 15 9 15 4 0 8 -4 8 -9z m-4106 -43 c-3 -4 -11 -5 -19 -1 -21 7 -19
12 4 10 11 0 18 -5 15 -9z m4186 2 c0 -5 -2 -10 -4 -10 -3 0 -8 5 -11 10 -3 6
-1 10 4 10 6 0 11 -4 11 -10z m-4720 -35 c0 -5 -5 -3 -10 5 -5 8 -10 20 -10
25 0 6 5 3 10 -5 5 -8 10 -19 10 -25z m-5 -17 c5 4 5 1 1 -6 -6 -10 -11 -10
-22 -1 -8 6 -14 14 -14 16 0 3 6 0 13 -6 8 -6 18 -7 22 -3z m8 -36 c-10 -10
-20 -17 -22 -16 -6 5 20 34 30 34 5 0 1 -8 -8 -18z m4673 -28 c1 -9 0 -13 -4
-10 -3 4 -7 14 -8 22 -1 9 0 13 4 10 3 -4 7 -14 8 -22z m21 -16 c-3 -8 -6 -5
-6 6 -1 11 2 17 5 13 3 -3 4 -12 1 -19z m-4696 -25 c13 -16 12 -17 -3 -4 -17
13 -22 21 -14 21 2 0 10 -8 17 -17z m4716 -73 c1 -11 -2 -22 -6 -24 -6 -4 -7
26 -2 42 3 8 7 -1 8 -18z m56 -13 c7 4 6 -1 -2 -10 -9 -12 -10 -17 -2 -17 7 0
10 -4 6 -9 -7 -12 29 -33 39 -23 4 3 4 -1 1 -10 -5 -12 -1 -17 12 -17 22 1
104 -6 193 -16 36 -4 72 -8 80 -8 8 0 21 -4 28 -10 8 -6 12 -6 12 2 0 8 5 9
19 2 10 -6 21 -8 24 -5 4 5 113 -13 185 -31 12 -3 32 -7 43 -10 12 -2 24 -7
28 -11 3 -4 -2 -5 -11 -1 -10 3 -19 0 -22 -10 -4 -9 -13 -13 -22 -9 -13 5 -14
3 -6 -6 8 -10 3 -13 -21 -14 -16 -1 -36 -9 -42 -17 -7 -9 -15 -14 -18 -10 -4
3 -7 -2 -8 -13 0 -10 -3 -13 -6 -7 -3 10 -8 9 -20 -2 -8 -8 -19 -13 -24 -10
-5 4 -9 -1 -9 -9 0 -9 -6 -13 -13 -10 -8 3 -18 -5 -25 -18 -6 -13 -11 -17 -11
-10 -1 6 -6 12 -12 12 -6 0 -9 -6 -6 -13 3 -9 -3 -13 -16 -13 -12 1 -22 -4
-22 -11 0 -7 -7 -18 -15 -25 -12 -11 -12 -11 -2 3 15 20 4 32 -14 16 -32 -29
-41 -34 -57 -31 -10 1 -17 -4 -17 -13 0 -13 -3 -13 -15 -3 -11 9 -15 9 -15 1
0 -7 -5 -9 -12 -5 -7 5 -9 2 -6 -8 5 -11 0 -14 -17 -13 -29 4 -68 -22 -59 -38
5 -9 3 -9 -6 0 -11 10 -16 9 -26 -5 -10 -14 -11 -11 -9 18 2 19 -2 38 -8 42
-9 6 -8 8 1 8 10 0 9 4 -3 16 -15 15 -15 18 1 41 9 14 11 22 5 19 -6 -4 -11
-2 -11 3 0 6 -4 11 -8 11 -5 0 -8 -18 -8 -40 0 -22 4 -40 8 -40 12 0 5 -24
-12 -37 -13 -11 -13 -12 1 -7 10 3 20 1 24 -5 3 -6 1 -11 -4 -11 -6 0 -10 -4
-8 -9 1 -5 -2 -9 -7 -9 -5 0 -12 -5 -15 -11 -4 -6 -12 -1 -20 12 -13 19 -12
21 1 9 13 -10 18 -9 28 3 11 13 10 14 -4 9 -19 -7 -20 -1 -3 26 10 17 9 22 -2
30 -11 6 -12 12 -3 22 9 11 9 17 0 26 -8 8 -8 15 3 28 12 15 11 16 -11 11 -14
-4 -19 -4 -12 -1 6 3 12 10 12 15 0 6 -6 7 -12 4 -7 -4 -5 0 4 8 16 13 16 15
0 31 -16 16 -16 18 2 32 11 8 17 14 13 14 -4 0 -3 9 2 19 8 14 7 22 -4 31 -13
10 -13 14 0 27 16 15 11 38 -6 27 -5 -3 -6 -10 -3 -16 5 -7 2 -8 -6 -3 -8 5
-11 4 -7 -2 4 -6 0 -19 -8 -29 -8 -10 -15 -14 -15 -7 0 6 5 15 10 18 8 5 8 11
0 20 -6 7 -8 20 -4 29 5 12 2 15 -12 10 -17 -6 -17 -5 1 10 11 10 14 14 7 11
-8 -4 -19 1 -27 11 -12 16 -11 22 3 37 10 11 18 14 20 8 2 -6 9 -8 15 -4z
m-4806 -49 c-3 -7 -5 -2 -5 12 0 14 2 19 5 13 2 -7 2 -19 0 -25z m4757 -4 c3
-8 2 -12 -4 -9 -6 3 -10 10 -10 16 0 14 7 11 14 -7z m-4831 -19 c-3 -9 -8 -14
-10 -11 -3 3 -2 9 2 15 9 16 15 13 8 -4z m64 -14 c-10 -12 -9 -14 6 -8 11 4
16 3 12 -4 -4 -5 -12 -8 -18 -6 -16 5 -17 34 -1 34 11 0 11 -3 1 -16z m5654 2
c13 -16 12 -17 -3 -4 -10 7 -18 15 -18 17 0 8 8 3 21 -13z m-5735 -32 c0 -11
-5 -17 -11 -13 -5 3 -4 -2 4 -11 11 -14 11 -18 -4 -23 -13 -5 -14 -9 -3 -15 7
-5 8 -9 2 -9 -6 0 -11 -6 -11 -12 0 -7 -4 -22 -9 -32 -5 -14 -4 -17 5 -11 10
6 11 3 2 -13 -8 -14 -8 -29 -1 -47 8 -20 7 -27 -6 -32 -11 -4 -14 -13 -10 -29
4 -13 3 -24 -1 -24 -5 0 -9 -16 -10 -36 -1 -20 -9 -44 -18 -53 -8 -10 -13 -20
-10 -23 3 -2 -2 -5 -10 -5 -13 0 -13 3 2 19 20 22 1 24 -36 4 -14 -8 -31 -12
-38 -9 -7 3 -13 0 -13 -6 0 -6 -9 -11 -20 -11 -11 0 -20 -4 -20 -10 0 -5 -7
-7 -15 -4 -8 4 -15 2 -15 -3 0 -5 -8 -9 -17 -10 -10 0 -27 -3 -38 -6 -28 -7
-243 -96 -280 -115 -16 -9 -32 -17 -35 -18 -27 -8 -90 -38 -90 -43 0 -4 -10
-8 -22 -8 -13 -1 -24 -7 -26 -13 -2 -5 -8 -10 -14 -10 -5 0 -22 -9 -38 -20
-15 -11 -30 -17 -34 -13 -3 3 -6 1 -6 -5 0 -13 -69 15 -82 33 -4 6 -8 6 -8 1
0 -5 -6 -3 -13 3 -8 6 -17 8 -20 4 -4 -3 -7 -2 -7 4 0 6 -14 16 -30 23 -16 7
-30 16 -30 21 0 5 -5 9 -11 9 -6 0 -16 6 -23 13 -7 6 -25 21 -39 32 -18 13
-25 26 -22 40 3 11 2 14 -1 7 -3 -6 -10 -9 -15 -6 -6 3 -5 11 2 20 8 10 8 14
0 14 -6 0 -11 5 -11 11 0 5 6 7 13 3 9 -5 9 -4 0 6 -9 10 -10 17 -2 27 7 7 8
13 4 13 -4 0 -2 7 5 15 7 8 16 12 21 9 5 -3 8 0 7 8 -2 7 3 12 9 11 7 -2 12 3
10 10 -1 6 6 12 15 12 9 0 20 4 25 9 5 5 2 6 -6 1 -10 -6 -12 -4 -7 4 5 7 14
10 22 7 8 -3 13 0 11 6 -2 12 79 66 109 71 20 4 76 28 84 37 3 3 14 7 25 8 10
2 25 11 32 20 11 15 14 15 22 2 9 -13 11 -12 16 1 4 10 16 15 29 14 13 -2 63
10 111 26 48 15 99 30 114 33 44 9 98 23 108 29 5 3 36 9 68 12 33 4 62 9 65
10 3 2 28 6 55 9 28 4 66 9 85 12 19 3 43 5 53 5 10 0 15 5 11 11 -4 6 -3 8 2
5 6 -3 16 -2 24 4 8 5 15 9 15 9 1 0 1 -9 1 -19z m4879 -9 c-3 -3 -11 0 -18 7
-9 10 -8 11 6 5 10 -3 15 -9 12 -12z m-4793 -9 c-6 -2 -9 -10 -6 -15 4 -7 2
-8 -5 -4 -13 9 -5 26 12 25 9 0 8 -2 -1 -6z m4835 -40 c-8 -9 -20 -12 -27 -8
-8 5 -6 11 7 20 23 17 39 7 20 -12z m-27 -23 c8 -5 11 -10 5 -10 -5 0 -17 5
-25 10 -8 5 -10 10 -5 10 6 0 17 -5 25 -10z m570 -34 c0 -3 -4 -8 -10 -11 -5
-3 -10 -1 -10 4 0 6 5 11 10 11 6 0 10 -2 10 -4z m-5413 -58 c-3 -7 -5 -2 -5
12 0 14 2 19 5 13 2 -7 2 -19 0 -25z m-10 -24 c-3 -4 0 -19 8 -33 12 -25 12
-27 -6 -28 -10 -1 -21 2 -24 8 -3 5 1 6 9 3 9 -3 16 -1 16 5 0 6 -4 11 -9 11
-5 0 -8 8 -6 18 5 23 4 22 12 22 3 0 4 -3 0 -6z m43 2 c0 -2 -7 -6 -15 -10 -8
-3 -15 -1 -15 4 0 6 7 10 15 10 8 0 15 -2 15 -4z m4831 -41 c5 4 6 -1 2 -10
-5 -13 -7 -14 -14 -3 -5 7 -8 18 -8 23 0 6 3 4 6 -3 2 -6 9 -10 14 -7z m-4851
-80 c13 -18 13 -19 0 -8 -10 8 -21 9 -30 3 -15 -9 -13 -11 12 -14 6 0 12 -12
13 -25 2 -21 1 -22 -11 -7 -6 9 -14 13 -16 9 -3 -4 -3 -3 -2 4 2 7 -2 15 -8
19 -7 5 -5 11 6 20 11 8 13 14 7 19 -6 3 -11 11 -11 16 0 11 15 -3 40 -36z
m10 35 c8 -5 11 -10 5 -10 -5 0 -17 5 -25 10 -8 5 -10 10 -5 10 6 0 17 -5 25
-10z m4842 -25 c-8 -16 -9 -16 -15 -1 -4 10 -3 15 3 11 6 -3 10 -1 10 6 0 7 3
10 6 6 3 -3 2 -13 -4 -22z m243 -15 c3 -5 1 -10 -4 -10 -6 0 -11 5 -11 10 0 6
2 10 4 10 3 0 8 -4 11 -10z m-255 -38 c0 -4 -10 -9 -22 -9 -18 -2 -20 0 -8 7
18 12 30 13 30 2z m-4957 -49 c3 -18 0 -34 -5 -35 -7 -3 -5 -10 3 -18 8 -8 16
-28 17 -45 2 -16 8 -35 13 -41 5 -6 7 -19 3 -28 -4 -11 -1 -16 14 -16 11 0 23
-7 26 -16 3 -8 10 -12 16 -9 5 3 10 1 10 -4 0 -6 -5 -11 -11 -11 -5 0 -7 -5
-4 -11 5 -7 14 -4 28 8 12 9 17 11 10 4 -16 -18 -5 -41 15 -34 13 4 12 2 -3
-10 -17 -14 -17 -16 -4 -17 17 0 34 -28 24 -38 -3 -3 -5 -1 -5 4 0 6 -13 20
-28 31 l-28 21 0 -38 c1 -21 3 -37 6 -35 8 5 35 -18 38 -33 2 -10 -15 -16 -39
-14 -3 1 -4 -9 -3 -21 1 -12 3 -27 3 -33 1 -7 8 -15 17 -18 8 -3 12 -2 9 4 -9
15 4 12 21 -4 8 -8 14 -22 14 -31 0 -11 5 -15 14 -12 10 4 13 1 9 -9 -3 -8 1
-14 11 -14 19 0 21 -14 4 -28 -19 -15 -27 -15 -44 3 -18 18 -34 20 -34 3 0 -9
-3 -9 -11 -1 -9 9 -18 8 -38 -4 -24 -14 -25 -14 -6 1 17 14 17 18 5 31 -11 10
-19 11 -30 4 -13 -9 -12 -10 2 -5 10 3 20 1 23 -4 4 -6 3 -10 -2 -11 -4 0 -18
-2 -31 -3 -13 -2 -26 2 -29 7 -4 6 -1 7 8 2 11 -7 11 -5 -1 11 -22 29 -24 30
-17 12 4 -10 2 -18 -3 -18 -6 0 -10 5 -10 11 0 8 -6 7 -17 -2 -9 -8 -14 -9
-10 -3 9 15 -17 26 -40 17 -11 -4 -14 -3 -9 5 5 8 -4 12 -28 12 -20 0 -36 5
-36 11 0 8 -6 7 -17 -2 -9 -8 -14 -9 -10 -3 8 14 -22 23 -58 20 -13 -2 -22 0
-20 4 4 7 -19 16 -67 25 -10 2 -18 -2 -18 -8 0 -8 -4 -7 -9 2 -5 8 -17 16 -26
17 -9 1 -19 5 -22 8 -4 3 -12 -2 -20 -12 -8 -9 -11 -11 -7 -3 8 15 -12 31 -39
31 -19 0 -66 18 -120 45 -15 8 -25 10 -21 4 4 -7 0 -7 -12 0 -25 15 -75 34
-94 37 -25 3 -66 23 -50 23 8 0 21 -3 29 -8 13 -8 63 13 97 40 6 5 14 6 17 2
4 -3 7 0 7 7 0 7 3 11 6 8 3 -4 30 7 61 23 30 16 62 29 70 29 8 0 11 4 8 10
-4 6 4 9 17 7 12 -1 23 3 23 10 0 6 4 15 9 20 5 5 6 3 2 -4 -4 -7 -2 -13 3
-13 6 0 11 5 11 10 0 6 9 10 21 10 11 0 18 4 15 9 -4 5 3 7 14 4 12 -3 20 0
20 7 0 7 7 10 15 6 8 -3 15 0 15 6 0 6 3 9 6 5 3 -3 30 5 60 18 30 13 55 24
57 24 4 0 43 13 91 32 26 10 53 16 60 12 6 -3 8 -3 4 1 -5 6 22 45 29 42 0 -1
3 -15 6 -33z m107 17 c8 -5 11 -10 5 -10 -5 0 -2 -7 8 -14 10 -8 14 -17 9 -20
-5 -3 -15 6 -22 20 -10 18 -16 21 -22 12 -5 -10 -8 -8 -8 5 0 19 8 21 30 7z
m-9 -42 c1 -7 1 -17 0 -22 -1 -4 3 -13 8 -20 13 -15 -4 -45 -18 -31 -5 6 -12
23 -15 38 -4 24 -2 28 12 23 13 -5 13 -3 -2 9 -17 13 -18 15 -3 15 9 0 18 -6
18 -12z m60 -45 c13 -16 12 -17 -3 -4 -10 7 -18 15 -18 17 0 8 8 3 21 -13z
m130 -50 c13 -16 12 -17 -3 -4 -10 7 -18 15 -18 17 0 8 8 3 21 -13z m-137 -15
c-3 -4 -11 -5 -19 -1 -21 7 -19 12 4 10 11 0 18 -5 15 -9z m4863 6 c-3 -3 -12
-4 -19 -1 -8 3 -5 6 6 6 11 1 17 -2 13 -5z m-4880 -27 c4 -5 1 -7 -7 -5 -9 2
-14 -3 -12 -12 2 -8 0 -12 -4 -8 -4 4 -14 2 -23 -4 -13 -10 -14 -10 -4 2 10
10 9 16 -4 25 -14 11 -12 12 15 11 17 -1 34 -5 39 -9z m39 -22 c-1 -8 -5 -17
-8 -21 -5 -4 -4 16 1 34 3 9 9 -1 7 -13z m-32 -13 c2 -4 -5 -9 -17 -9 -17 -2
-19 0 -7 7 18 12 18 12 24 2z m4811 -10 c-3 -3 -11 0 -18 7 -9 10 -8 11 6 5
10 -3 15 -9 12 -12z m-4770 -32 c-3 -5 -12 -10 -18 -10 -7 0 -6 4 3 10 19 12
23 12 15 0z m4752 -5 c0 -8 -4 -12 -9 -9 -5 3 -6 10 -3 15 9 13 12 11 12 -6z
m43 -5 c0 -5 -8 -10 -17 -10 -15 0 -16 2 -3 10 19 12 20 12 20 0z m-4645 -18
c-3 -3 -11 0 -18 7 -9 10 -8 11 6 5 10 -3 15 -9 12 -12z m-95 -12 c0 -5 -2
-10 -4 -10 -3 0 -8 5 -11 10 -3 6 -1 10 4 10 6 0 11 -4 11 -10z m4730 0 c5 8
9 7 13 -4 4 -9 1 -15 -5 -13 -7 1 -12 -3 -13 -10 0 -6 -4 -15 -9 -20 -5 -4 -6
-3 -2 4 3 6 2 14 -3 18 -6 3 -7 13 -4 22 5 12 8 13 11 4 3 -10 6 -10 12 -1z
m1044 2 c2 -4 -5 -9 -17 -9 -17 -2 -19 0 -7 7 18 12 18 12 24 2z m-5877 -53
c3 -12 11 -18 19 -15 37 16 49 17 29 5 -11 -7 -26 -20 -33 -28 -8 -9 -11 -10
-7 -3 3 6 -1 15 -10 18 -9 4 -14 13 -10 21 4 11 1 13 -10 9 -9 -3 -13 -2 -10
4 10 17 27 11 32 -11z m4803 7 c0 -8 -4 -18 -10 -21 -6 -4 -7 1 -3 11 5 13 3
15 -7 9 -9 -5 -11 -4 -6 3 10 17 26 15 26 -2z m-5705 -36 c6 -4 28 -13 50 -20
22 -6 60 -21 85 -32 25 -12 56 -21 70 -22 14 -1 28 -5 32 -10 3 -5 20 -9 37
-9 17 0 28 -5 24 -10 -4 -6 5 -8 20 -5 15 3 24 2 22 -3 -7 -10 19 -18 68 -21
20 -1 37 -6 37 -11 0 -4 3 -6 8 -4 4 3 18 0 32 -6 37 -15 50 -16 50 -6 0 6 5
7 10 4 6 -4 7 -11 4 -17 -4 -7 -2 -8 5 -4 6 4 20 2 29 -6 15 -12 16 -11 4 4
-10 12 -10 18 -1 24 8 5 9 3 4 -6 -5 -9 -1 -11 16 -6 13 3 18 3 12 0 -7 -3
-13 -11 -13 -17 0 -5 3 -7 7 -4 3 4 13 1 21 -6 13 -10 14 -8 9 13 -4 14 -4 19
-1 12 3 -6 10 -10 15 -6 5 3 9 2 8 -3 -1 -4 -1 -15 0 -23 1 -13 3 -13 10 -1 5
8 16 11 26 8 9 -4 14 -10 11 -15 -2 -4 12 -7 32 -6 23 1 48 -7 67 -20 27 -18
28 -18 15 -1 -14 17 -14 18 8 6 18 -10 26 -10 38 0 8 7 14 8 13 3 -3 -20 1
-35 10 -30 5 3 15 -2 22 -11 10 -12 10 -14 2 -9 -7 4 -13 2 -13 -3 0 -6 7 -11
15 -11 9 0 12 -6 9 -15 -4 -9 0 -15 10 -15 20 0 20 -10 -1 -39 -9 -14 -11 -21
-5 -17 11 7 17 -11 13 -42 -2 -10 2 -10 18 0 13 8 17 16 11 22 -6 6 -10 25
-10 43 0 21 -6 36 -15 39 -13 5 -13 9 -3 22 8 10 9 13 1 9 -13 -8 -12 18 2 30
4 4 5 3 1 -4 -3 -6 -2 -14 4 -18 5 -3 10 -15 10 -26 0 -10 5 -18 11 -16 6 1
14 -5 16 -13 4 -13 3 -13 -6 0 -9 13 -11 13 -11 -2 0 -12 8 -18 21 -18 11 0
17 -5 14 -10 -4 -6 -10 -8 -14 -5 -5 2 -6 -7 -3 -20 2 -14 8 -22 12 -20 5 3
12 0 16 -6 4 -8 3 -9 -4 -5 -7 4 -12 1 -12 -9 0 -9 4 -14 9 -11 5 3 12 -1 15
-10 4 -10 2 -13 -7 -8 -9 5 -9 4 1 -7 18 -19 15 -28 -8 -26 -12 1 -18 7 -16
14 3 7 1 13 -5 13 -5 0 -9 7 -7 16 2 10 -3 19 -9 21 -8 3 -13 -5 -13 -20 0
-14 4 -27 9 -29 6 -1 11 -15 13 -29 2 -15 10 -35 18 -45 9 -11 10 -15 3 -10
-8 4 -13 2 -13 -6 0 -8 6 -20 13 -28 10 -12 9 -12 -6 0 -12 8 -16 21 -13 34 5
20 4 20 -14 -1 -15 -19 -19 -20 -24 -7 -3 8 -2 13 2 10 5 -3 9 1 9 9 0 12 -4
12 -21 -1 -23 -16 -40 -19 -31 -5 3 5 1 13 -5 16 -6 4 -9 1 -8 -7 2 -8 -4 -12
-16 -10 -12 2 -16 -1 -10 -9 4 -8 3 -10 -5 -5 -6 4 -9 11 -6 16 3 4 -2 10 -10
13 -10 4 -12 1 -8 -11 6 -15 5 -15 -10 -3 -14 11 -18 11 -23 -4 -7 -16 -8 -16
-17 0 -8 14 -11 15 -18 4 -7 -11 -9 -11 -9 2 0 9 -11 28 -25 43 -22 23 -31 27
-63 22 -20 -3 -38 -5 -38 -6 -1 0 -4 -9 -7 -21 -3 -12 -10 -18 -15 -15 -6 3
-13 0 -16 -6 -5 -10 -7 -10 -12 0 -5 10 -9 10 -20 1 -8 -6 -14 -8 -14 -5 0 4
-10 2 -21 -5 -15 -8 -19 -8 -15 0 6 10 -20 16 -46 12 -5 0 -8 4 -8 11 0 9 -3
9 -12 0 -19 -19 -23 -15 -26 34 -1 25 -9 55 -17 68 -8 12 -12 25 -9 28 3 4 -4
9 -15 13 -12 3 -21 11 -21 16 0 5 -7 9 -16 9 -8 0 -13 4 -10 8 2 4 -10 9 -27
10 -18 2 -45 4 -62 6 -18 3 -43 -4 -62 -15 -35 -22 -78 -83 -76 -109 2 -17
-17 -19 -48 -6 -9 4 -20 6 -25 5 -5 -1 -11 0 -14 1 -3 1 -16 3 -30 4 -14 2
-32 6 -41 10 -9 4 -22 6 -30 4 -8 -2 -13 3 -11 11 3 12 0 12 -12 1 -11 -8 -16
-9 -16 -1 0 6 -11 11 -25 11 -17 0 -25 6 -26 18 -1 16 -2 16 -6 0 -5 -20 -24
-25 -21 -5 2 7 -5 11 -19 9 -13 -2 -27 5 -35 17 -8 12 -18 18 -21 14 -4 -3 -7
1 -7 9 0 9 -7 19 -16 22 -8 3 -12 10 -9 16 3 5 2 10 -2 10 -5 0 -9 18 -9 40
-1 22 3 40 8 40 4 0 8 7 8 15 0 7 8 19 18 24 9 6 13 11 9 11 -4 0 9 15 30 33
21 17 49 42 63 55 14 12 37 28 53 35 15 6 27 15 27 18 0 4 14 12 31 19 l31 13
-26 14 c-14 7 -26 16 -26 18 0 5 71 -24 85 -35z m6680 31 c3 -5 2 -12 -3 -15
-5 -3 -9 1 -9 9 0 17 3 19 12 6z m-5638 -16 c0 -8 -4 -12 -9 -9 -5 3 -6 10 -3
15 9 13 12 11 12 -6z m-99 -42 c-20 -5 -23 -18 -8 -28 6 -3 8 -17 6 -31 -3
-13 0 -24 5 -24 5 0 9 -4 9 -10 0 -18 -15 -10 -35 19 -14 22 -23 27 -32 19 -9
-7 -13 -7 -13 1 0 6 5 12 10 12 6 1 15 3 20 4 6 1 13 3 18 4 4 1 0 6 -8 11
-13 9 -13 11 0 20 8 5 22 9 30 9 11 -1 10 -3 -2 -6z m4784 -17 c7 4 8 2 4 -5
-9 -14 -36 3 -36 23 0 6 5 3 11 -7 6 -9 15 -14 21 -11z m-4742 4 c0 -5 -5 -10
-11 -10 -5 0 -7 5 -4 10 3 6 8 10 11 10 2 0 4 -4 4 -10z m35 0 c3 -5 1 -10 -4
-10 -6 0 -11 5 -11 10 0 6 2 10 4 10 3 0 8 -4 11 -10z m79 -6 c3 -8 2 -12 -4
-9 -6 3 -10 10 -10 16 0 14 7 11 14 -7z m5436 10 c0 -8 -19 -13 -24 -6 -3 5 1
9 9 9 8 0 15 -2 15 -3z m-821 -47 c0 -8 -2 -8 -6 1 -4 10 -8 10 -21 0 -15 -12
-16 -11 -3 4 14 19 32 15 30 -5z m-4675 -15 c3 -5 -1 -9 -9 -9 -8 0 -12 4 -9
9 3 4 7 8 9 8 2 0 6 -4 9 -8z m-61 -17 c-3 -9 -8 -14 -10 -11 -3 3 -2 9 2 15
9 16 15 13 8 -4z m18 -18 c-10 -9 -11 -8 -5 6 3 10 9 15 12 12 3 -3 0 -11 -7
-18z m24 -166 c3 -5 2 -12 -3 -15 -5 -3 -9 1 -9 9 0 17 3 19 12 6z m35 -57 c0
-8 -19 -13 -24 -6 -3 5 1 9 9 9 8 0 15 -2 15 -3z m4 -130 c3 -8 2 -12 -4 -9
-6 3 -10 10 -10 16 0 14 7 11 14 -7z m-18 -29 c-7 -18 5 -20 23 -2 11 10 13
10 7 0 -4 -7 -2 -13 4 -13 6 0 8 -5 4 -11 -4 -8 -9 -7 -15 2 -5 8 -9 9 -9 3 0
-6 -7 -11 -15 -11 -8 0 -15 7 -15 15 0 9 -6 12 -17 8 -15 -5 -15 -4 1 9 25 19
40 19 32 0z m-449 -50 c0 -8 -4 -12 -9 -9 -5 3 -6 10 -3 15 9 13 12 11 12 -6z
m505 -66 c4 -1 12 -2 17 -3 27 -3 19 -15 -11 -14 -31 1 -34 4 -36 32 -1 29 0
30 10 9 6 -13 15 -24 20 -24z m4329 -166 c13 -16 12 -17 -3 -4 -10 7 -18 15
-18 17 0 8 8 3 21 -13z m-157 -61 c3 -5 -1 -9 -9 -9 -8 0 -12 4 -9 9 3 4 7 8
9 8 2 0 6 -4 9 -8z m46 -62 c-8 -5 -17 -7 -21 -4 -4 2 -13 -4 -20 -13 -12 -15
-12 -16 4 -10 12 4 16 3 11 -4 -4 -6 0 -15 7 -20 7 -4 10 -11 6 -15 -3 -4 -15
4 -26 17 -17 21 -17 26 -6 39 8 9 24 16 37 17 17 2 19 0 8 -7z m70 1 c0 -6 -4
-12 -8 -15 -5 -3 -9 1 -9 9 0 8 4 15 9 15 4 0 8 -4 8 -9z m-140 -21 c0 -5 -5
-10 -11 -10 -5 0 -7 5 -4 10 3 6 8 10 11 10 2 0 4 -4 4 -10z m-100 -24 c0 -2
-6 -9 -14 -15 -11 -9 -16 -9 -22 0 -4 7 -3 9 4 5 6 -3 13 -2 17 4 6 10 15 14
15 6z m55 -5 c3 -5 0 -13 -6 -17 -7 -4 -9 -3 -5 4 3 5 0 13 -6 15 -9 4 -10 6
-1 6 6 1 14 -3 18 -8z m62 -7 c-3 -4 3 -14 15 -24 12 -9 23 -25 24 -34 2 -14
0 -15 -12 -6 -10 9 -17 9 -28 -3 -8 -8 -12 -17 -9 -21 4 -3 4 -6 0 -6 -15 0
-15 20 0 36 17 17 17 18 0 11 -13 -5 -16 -3 -11 6 6 9 4 9 -7 1 -8 -6 -22 -10
-31 -9 -10 2 -16 -2 -15 -8 1 -6 -13 -11 -30 -12 -18 -1 -33 2 -33 7 0 6 6 8
14 5 8 -3 22 1 33 9 17 15 17 15 -3 11 -22 -5 -27 14 -9 30 4 4 5 3 2 -3 -8
-14 30 -26 39 -13 3 5 10 7 15 4 5 -4 9 -1 9 4 0 6 9 2 20 -9 11 -11 26 -20
33 -19 6 0 2 7 -10 16 -25 17 -30 33 -11 33 6 0 9 -3 5 -6z m83 2 c0 -2 -7 -7
-16 -10 -8 -3 -12 -2 -9 4 6 10 25 14 25 6z m-3949 -39 c-10 -9 -11 -8 -5 6 3
10 9 15 12 12 3 -3 0 -11 -7 -18z m3704 -6 c3 -5 2 -12 -3 -15 -5 -3 -9 1 -9
9 0 17 3 19 12 6z m130 -29 c-3 -8 1 -24 9 -36 13 -20 12 -21 -11 -21 -13 1
-28 6 -34 12 -7 7 -18 9 -25 6 -8 -3 -14 -1 -14 3 0 14 14 29 30 32 8 2 16 7
18 11 1 4 9 8 18 8 9 0 13 -6 9 -15z m-3771 -1 c3 -5 -1 -11 -9 -14 -9 -4 -12
-1 -8 9 6 16 10 17 17 5z m3690 -26 c-7 -17 -7 -17 -29 -9 -13 5 -14 8 -3 15
21 14 38 10 32 -6z m136 0 c0 -8 -8 -15 -17 -14 -11 0 -13 3 -5 6 6 2 10 9 6
14 -3 5 0 9 5 9 6 0 11 -7 11 -15z m-3780 -59 c-1 -6 -6 -1 -13 12 -7 12 -17
19 -22 15 -4 -4 -5 -2 0 6 7 12 10 11 22 -4 7 -11 13 -24 13 -29z m3575 34 c3
-5 1 -10 -4 -10 -6 0 -11 5 -11 10 0 6 2 10 4 10 3 0 8 -4 11 -10z m-3538 -35
c0 -8 -4 -12 -9 -9 -5 3 -6 10 -3 15 9 13 12 11 12 -6z m3523 -5 c0 -5 -4 -10
-10 -10 -5 0 -10 5 -10 10 0 6 5 10 10 10 6 0 10 -4 10 -10z m-3540 -15 c0 -7
-30 -13 -34 -7 -3 4 4 9 15 9 10 1 19 0 19 -2z m3416 -34 c-4 -5 0 -11 6 -14
7 -3 3 -4 -9 -4 -17 1 -19 4 -11 14 12 15 22 18 14 4z m-3296 -27 c0 -8 -19
-13 -24 -6 -3 5 1 9 9 9 8 0 15 -2 15 -3z m3230 -20 c0 -8 -19 -13 -24 -6 -3
5 1 9 9 9 8 0 15 -2 15 -3z m-3149 -48 c6 3 3 11 -6 18 -15 11 -14 12 3 12 20
0 23 -11 8 -34 -4 -7 -6 -19 -3 -25 3 -8 -4 -13 -17 -14 -11 -1 -31 -3 -43 -6
-25 -6 -40 7 -22 19 6 3 15 0 20 -7 7 -11 9 -11 9 -1 0 7 5 10 12 6 7 -4 8 -3
4 5 -4 6 -11 9 -16 6 -5 -3 -11 -1 -15 5 -3 5 -2 10 4 10 5 0 13 9 16 21 l7
21 15 -21 c8 -12 19 -19 24 -15z m76 14 c1 -11 -2 -20 -7 -20 -6 0 -7 17 -1
38 3 8 7 -1 8 -18z m3078 10 c-3 -5 -14 -10 -23 -9 -14 0 -13 2 3 9 27 11 27
11 20 0z m-3004 -27 c13 -16 12 -17 -3 -5 -9 8 -23 10 -29 6 -8 -4 -9 -3 -5 4
10 17 21 15 37 -5z m2955 -29 c-21 -20 -28 -17 -14 5 7 11 16 17 20 15 5 -3 2
-12 -6 -20z m-48 -9 c-3 -3 -9 2 -12 12 -6 14 -5 15 5 6 7 -7 10 -15 7 -18z
m282 15 c0 -13 -28 -25 -38 -16 -3 4 0 11 8 16 20 13 30 12 30 0z m-3174 -12
c4 -7 3 -8 -4 -4 -7 4 -12 2 -12 -5 0 -7 -3 -10 -6 -6 -6 5 3 27 11 27 2 0 7
-5 11 -12z m51 -8 c-1 -11 -5 -20 -9 -20 -10 0 -10 4 -2 24 8 22 13 20 11 -4z
m-117 -12 c0 -5 -9 -4 -20 2 -11 6 -20 12 -20 14 0 2 9 2 20 -1 11 -3 20 -9
20 -15z m55 -18 c3 -5 1 -10 -4 -10 -6 0 -11 5 -11 10 0 6 2 10 4 10 3 0 8 -4
11 -10z m94 -12 c-11 -21 -15 -22 -25 -6 -5 7 -3 8 6 3 9 -6 12 -4 8 7 -4 8 0
15 7 15 10 0 11 -5 4 -19z m-25 -23 c11 -8 14 -15 8 -15 -7 0 -14 0 -17 0 -3
0 -5 3 -4 6 0 4 -5 11 -13 15 -7 5 -8 9 -3 9 6 -1 19 -7 29 -15z m101 -3 c-3
-3 -11 0 -18 7 -9 10 -8 11 6 5 10 -3 15 -9 12 -12z m-67 -17 c-6 -14 -13 -23
-15 -21 -5 5 15 46 22 46 3 0 -1 -11 -7 -25z m2719 -10 c0 -8 -4 -12 -9 -9 -4
3 -8 9 -8 15 0 5 4 9 8 9 5 0 9 -7 9 -15z m-2611 -17 c12 -14 13 -18 3 -10 -9
6 -18 10 -21 7 -2 -3 -5 2 -5 10 0 19 0 19 23 -7z m2550 2 c0 -12 -4 -16 -9
-11 -5 5 -6 14 -3 20 10 15 12 14 12 -9z m-2626 0 c8 -5 11 -10 5 -10 -5 0
-17 5 -25 10 -8 5 -10 10 -5 10 6 0 17 -5 25 -10z m2665 -21 c-4 -5 -12 -9
-18 -8 -9 0 -8 2 1 6 6 2 9 10 6 15 -4 7 -2 8 5 4 6 -4 9 -12 6 -17z m-2498
-12 c1 -11 1 -18 0 -16 -2 2 -8 11 -15 20 -9 12 -9 16 1 16 7 0 14 -9 14 -20z
m97 -17 c-5 -5 -10 3 -11 18 -1 22 0 24 9 8 6 -10 6 -22 2 -26z m-239 9 c-5
-15 -4 -19 4 -15 6 4 11 5 11 2 0 -16 -21 -13 -30 5 -8 15 -9 19 -1 15 6 -4
11 -2 11 3 0 6 3 11 6 11 3 0 2 -10 -1 -21z m303 -4 c-3 -3 -9 2 -12 12 -6 14
-5 15 5 6 7 -7 10 -15 7 -18z m-359 -6 l-24 -19 23 0 c12 0 22 6 22 13 0 6 6
3 12 -8 16 -29 16 -29 33 -15 12 10 18 11 28 1 9 -10 8 -11 -7 -5 -15 6 -17 4
-11 -6 5 -9 4 -11 -3 -6 -15 9 -15 1 -1 -27 10 -21 10 -21 -5 -3 -12 15 -16
16 -17 5 0 -10 -2 -10 -6 -1 -2 6 -10 9 -15 6 -6 -4 -8 -2 -5 3 4 6 -1 17 -10
24 -15 12 -16 12 -10 -6 6 -18 5 -18 -12 2 -10 12 -22 19 -27 15 -5 -4 -3 0 4
9 8 11 9 18 0 27 -8 8 -2 10 22 10 l32 -1 -23 -18z m118 1 c-1 -11 -5 -20 -9
-20 -10 0 -10 4 -2 24 8 22 13 20 11 -4z m2543 10 c0 -5 -4 -10 -10 -10 -5 0
-10 5 -10 10 0 6 5 10 10 10 6 0 10 -4 10 -10z m-2503 -15 c0 -8 -4 -12 -9 -9
-5 3 -6 10 -3 15 9 13 12 11 12 -6z m83 -2 c0 -3 -7 -12 -16 -20 -14 -15 -13
-17 12 -28 25 -10 26 -12 10 -18 -10 -4 -21 -5 -24 -2 -3 3 1 5 9 6 8 0 5 4
-7 9 -14 5 -20 16 -18 32 1 12 3 23 3 24 3 3 31 0 31 -3z m33 -43 c-3 -3 -8 1
-10 8 -3 6 -9 10 -14 7 -5 -4 -6 1 -3 10 6 14 8 14 19 -2 8 -10 11 -20 8 -23z
m44 25 c0 -8 -4 -12 -9 -9 -5 3 -6 10 -3 15 9 13 12 11 12 -6z m2293 11 c0 -2
-7 -7 -16 -10 -8 -3 -12 -2 -9 4 6 10 25 14 25 6z m-2423 -28 c-3 -8 -6 -5 -6
6 -1 11 2 17 5 13 3 -3 4 -12 1 -19z m2333 -8 c0 -5 -2 -10 -4 -10 -3 0 -8 5
-11 10 -3 6 -1 10 4 10 6 0 11 -4 11 -10z m-2220 -20 c0 -5 -4 -10 -10 -10 -5
0 -10 5 -10 10 0 6 5 10 10 10 6 0 10 -4 10 -10z m117 -25 c0 -8 -4 -12 -9 -9
-5 3 -6 10 -3 15 9 13 12 11 12 -6z m43 11 c0 -3 -4 -8 -10 -11 -5 -3 -10 -1
-10 4 0 6 5 11 10 11 6 0 10 -2 10 -4z m2025 -6 c-3 -5 -12 -10 -18 -10 -7 0
-6 4 3 10 19 12 23 12 15 0z m-2160 -20 c-3 -5 -14 -10 -23 -9 -14 0 -13 2 3
9 27 11 27 11 20 0z m195 4 c0 -8 -19 -13 -24 -6 -3 5 1 9 9 9 8 0 15 -2 15
-3z m80 0 c0 -8 -19 -13 -24 -6 -3 5 1 9 9 9 8 0 15 -2 15 -3z m1907 -16 c-3
-8 -6 -5 -6 6 -1 11 2 17 5 13 3 -3 4 -12 1 -19z m-2115 -5 c-1 -4 7 -17 16
-28 9 -11 10 -15 3 -8 -7 6 -21 9 -30 6 -10 -3 -12 -2 -5 4 6 4 10 16 8 26 -1
11 0 17 3 14 2 -3 5 -9 5 -14z m128 -17 c0 -3 -4 -8 -10 -11 -5 -3 -10 -1 -10
4 0 6 5 11 10 11 6 0 10 -2 10 -4z m1880 0 c0 -2 -7 -7 -16 -10 -8 -3 -12 -2
-9 4 6 10 25 14 25 6z m33 -27 c-8 -8 -13 -7 -18 2 -6 8 -4 10 5 4 10 -6 12
-4 6 11 -6 15 -5 17 5 7 9 -10 10 -16 2 -24z m-1833 7 c0 -2 -7 -7 -16 -10 -8
-3 -12 -2 -9 4 6 10 25 14 25 6z m-95 -26 c3 -6 -1 -7 -9 -4 -18 7 -21 14 -7
14 6 0 13 -4 16 -10z m169 2 c3 -5 -1 -9 -9 -9 -8 0 -12 4 -9 9 3 4 7 8 9 8 2
0 6 -4 9 -8z m1696 -4 c0 -4 -7 -8 -15 -8 -8 0 -15 4 -15 8 0 5 7 9 15 9 8 0
15 -4 15 -9z m-1885 -18 c-3 -5 -14 -10 -23 -9 -14 0 -13 2 3 9 27 11 27 11
20 0z m354 -13 c8 -10 7 -14 -2 -14 -8 0 -14 6 -14 14 0 7 1 13 2 13 2 0 8 -6
14 -13z m81 -11 c-7 -7 -13 -7 -20 0 -6 6 -3 10 10 10 13 0 16 -4 10 -10z
m-310 0 c0 -2 -7 -7 -16 -10 -8 -3 -12 -2 -9 4 6 10 25 14 25 6z m465 -16 c3
-5 1 -10 -4 -10 -6 0 -11 5 -11 10 0 6 2 10 4 10 3 0 8 -4 11 -10z m1040 -10
c-3 -5 -2 -18 4 -28 5 -10 6 -24 2 -31 -11 -18 -18 -2 -16 34 3 34 3 35 11 35
3 0 2 -4 -1 -10z m-1480 -10 c3 -5 1 -10 -4 -10 -6 0 -11 5 -11 10 0 6 2 10 4
10 3 0 8 -4 11 -10z m110 0 c-3 -5 -12 -10 -18 -10 -7 0 -6 4 3 10 19 12 23
12 15 0z m29 -6 c3 -8 2 -12 -4 -9 -6 3 -10 10 -10 16 0 14 7 11 14 -7z m46 6
c0 -5 -2 -10 -4 -10 -3 0 -8 5 -11 10 -3 6 -1 10 4 10 6 0 11 -4 11 -10z m-83
-44 c-4 -13 -37 -17 -37 -5 0 6 -4 7 -10 4 -5 -3 -10 -1 -10 5 0 7 8 9 22 4
21 -6 22 -5 8 11 -14 17 -14 17 8 4 12 -8 21 -18 19 -23z m208 24 c3 -6 -1 -7
-9 -4 -18 7 -21 14 -7 14 6 0 13 -4 16 -10z m978 -5 c-3 -9 -8 -14 -10 -11 -3
3 -2 9 2 15 9 16 15 13 8 -4z m37 5 c0 -5 -2 -10 -4 -10 -3 0 -8 5 -11 10 -3
6 -1 10 4 10 6 0 11 -4 11 -10z m-1114 -28 c-4 -3 -14 2 -24 12 -16 18 -16 18
6 6 13 -6 21 -14 18 -18z m167 13 c-3 -9 -8 -14 -10 -11 -3 3 -2 9 2 15 9 16
15 13 8 -4z m165 -9 c-1 -14 -5 -23 -9 -20 -7 4 0 44 7 44 2 0 3 -11 2 -24z
m38 -1 c1 -8 -3 -18 -8 -22 -7 -3 -8 -1 -4 5 4 7 1 12 -6 13 -10 0 -10 2 0 6
6 2 9 10 5 16 -3 7 -2 8 2 4 5 -4 10 -14 11 -22z m61 12 c0 -8 -6 -14 -14 -14
-9 0 -10 4 -2 14 6 7 12 13 14 13 1 0 2 -6 2 -13z m723 -11 c0 -6 4 -4 10 4 5
8 12 12 15 9 3 -4 -1 -11 -8 -18 -11 -8 -18 -6 -32 9 -17 18 -17 20 -2 14 9
-3 17 -11 17 -18z m-1123 -4 c-19 -21 -22 -42 -6 -42 5 0 8 -4 4 -10 -9 -14
-33 -1 -31 18 1 18 26 50 40 51 5 1 2 -7 -7 -17z m46 3 c-3 -9 -8 -14 -10 -11
-3 3 -2 9 2 15 9 16 15 13 8 -4z m60 0 c-3 -9 -8 -14 -10 -11 -3 3 -2 9 2 15
9 16 15 13 8 -4z m132 -15 c-3 -4 0 -11 5 -13 6 -3 5 -4 -2 -2 -7 1 -12 8 -10
15 2 7 -3 10 -11 7 -7 -3 -14 1 -14 8 0 10 5 11 19 4 10 -6 16 -14 13 -19z
m185 10 c-6 -11 -13 -20 -16 -20 -2 0 0 9 6 20 6 11 13 20 16 20 2 0 0 -9 -6
-20z m231 -12 c-10 -11 -11 -9 -5 6 6 15 4 17 -6 11 -9 -6 -11 -4 -5 4 5 9 10
10 18 2 8 -8 7 -14 -2 -23z m50 19 c-6 -8 -7 -18 -3 -22 4 -5 1 -5 -6 -1 -10
6 -10 11 -1 22 6 8 14 14 16 14 3 0 0 -6 -6 -13z m54 3 c3 -5 1 -10 -4 -10 -6
0 -11 5 -11 10 0 6 2 10 4 10 3 0 8 -4 11 -10z m257 -9 c-4 -10 -7 -11 -10 -3
-2 7 -9 9 -14 6 -6 -4 -8 -3 -5 3 10 16 36 11 29 -6z m-939 -21 c15 0 38 -35
30 -44 -3 -3 -11 -2 -17 3 -6 5 -15 9 -20 8 -5 -1 -10 12 -11 28 -2 17 -1 24
2 18 2 -7 10 -13 16 -13z m353 -8 c-17 -16 -18 -16 -5 5 7 12 15 20 18 17 3
-2 -3 -12 -13 -22z m474 24 c0 -3 -4 -8 -10 -11 -5 -3 -10 -1 -10 4 0 6 5 11
10 11 6 0 10 -2 10 -4z m-860 -26 c0 -5 -5 -10 -11 -10 -5 0 -7 5 -4 10 3 6 8
10 11 10 2 0 4 -4 4 -10z m325 1 c7 -12 -12 -24 -25 -16 -11 7 -4 25 10 25 5
0 11 -4 15 -9z m-30 -29 c13 -19 14 -23 3 -14 -13 10 -17 10 -21 0 -2 -7 -8
-9 -13 -5 -5 4 -2 12 6 17 10 7 11 10 3 10 -7 0 -13 5 -13 10 0 18 14 10 35
-18z m65 18 c0 -5 -4 -10 -10 -10 -5 0 -10 5 -10 10 0 6 5 10 10 10 6 0 10 -4
10 -10z"/>
<path d="M6586 4441 c-3 -5 1 -14 9 -21 10 -9 15 -9 15 -1 0 6 -6 11 -12 11
-9 0 -8 4 2 10 9 6 10 10 3 10 -6 0 -14 -4 -17 -9z"/>
<path d="M6624 4374 c-2 -20 0 -21 12 -9 17 17 17 22 2 28 -8 3 -14 -5 -14
-19z"/>
<path d="M6669 4277 c-1 -4 -3 -11 -4 -17 -1 -5 -3 -15 -4 -21 0 -5 -5 -7 -11
-4 -15 10 -12 -11 4 -25 8 -6 13 -17 10 -25 -3 -7 0 -16 7 -21 7 -4 15 -2 17
4 2 7 9 10 15 6 7 -3 2 3 -9 13 -20 18 -20 21 -5 31 14 10 14 11 -1 6 -21 -7
-26 22 -5 29 10 4 10 7 0 18 -7 7 -14 10 -14 6z m21 -91 c0 -3 -4 -8 -10 -11
-5 -3 -10 -1 -10 4 0 6 5 11 10 11 6 0 10 -2 10 -4z"/>
<path d="M1706 3718 c3 -4 11 -5 17 -1 9 5 9 3 0 -8 -13 -16 -12 -36 0 -56 5
-7 5 -18 1 -25 -5 -7 -3 -8 6 -3 10 6 12 2 7 -15 -3 -13 -2 -19 3 -14 11 12
21 90 12 99 -4 4 -7 12 -7 18 0 7 -10 13 -22 13 -12 1 -20 -3 -17 -8z m39 -58
c1 -16 -1 -17 -13 -8 -9 8 -10 14 -3 16 6 2 8 9 4 15 -3 7 -2 9 2 4 5 -4 9
-16 10 -27z"/>
<path d="M1745 3570 c3 -6 1 -10 -6 -10 -7 0 -10 -3 -6 -6 3 -3 13 -2 22 4 16
8 16 9 1 15 -10 4 -15 3 -11 -3z"/>
<path d="M1802 3421 c-11 -7 -11 -9 0 -14 9 -3 15 1 15 9 0 8 -1 14 -1 14 -1
0 -7 -4 -14 -9z"/>
<path d="M1833 3404 c0 -15 24 -27 31 -16 3 5 -3 13 -13 19 -14 9 -18 8 -18
-3z"/>
<path d="M1759 3867 c6 -8 7 -18 3 -22 -4 -5 -1 -5 6 -1 10 6 10 11 1 22 -6 8
-14 14 -16 14 -3 0 0 -6 6 -13z"/>
<path d="M1827 3505 c-4 -8 -3 -16 1 -19 4 -3 9 4 9 15 2 23 -3 25 -10 4z"/>
<path d="M6105 2569 c-3 -4 2 -6 10 -5 21 3 28 13 10 13 -9 0 -18 -4 -20 -8z"/>
<path d="M6100 2520 c-9 -6 -10 -10 -3 -10 6 0 15 5 18 10 8 12 4 12 -15 0z"/>
<path d="M6115 2500 c-3 -5 -1 -10 4 -10 6 0 11 5 11 10 0 6 -2 10 -4 10 -3 0
-8 -4 -11 -10z"/>
<path d="M2590 2306 c0 -4 7 -14 15 -22 8 -9 15 -11 15 -6 0 5 -7 15 -15 22
-8 7 -15 9 -15 6z"/>
<path d="M2910 2063 c0 -6 8 -17 18 -24 16 -13 16 -13 2 6 -8 11 -16 22 -17
24 -2 2 -3 0 -3 -6z"/>
<path d="M3834 1728 c-4 -7 -4 -10 1 -6 4 4 15 2 24 -5 14 -11 14 -10 2 6 -16
20 -18 21 -27 5z"/>
<path d="M4311 6438 c-1 -11 6 -16 19 -15 11 1 20 5 20 10 0 5 -6 7 -14 4 -8
-3 -17 -1 -20 6 -2 7 -5 5 -5 -5z"/>
<path d="M4551 6433 c-7 -8 -11 -16 -8 -19 2 -2 10 2 17 11 17 20 9 27 -9 8z"/>
<path d="M4015 6410 c-3 -6 1 -7 9 -4 18 7 21 14 7 14 -6 0 -13 -4 -16 -10z"/>
<path d="M3970 6400 c0 -7 -3 -10 -7 -7 -3 4 -17 0 -29 -8 -12 -8 -24 -11 -27
-7 -2 4 -3 2 -1 -3 3 -17 -23 -48 -31 -36 -3 6 -1 11 4 11 16 0 13 17 -3 23
-10 4 -12 -2 -10 -24 4 -30 -18 -51 -43 -42 -7 3 -13 1 -13 -4 0 -12 38 -14
46 -2 3 6 11 3 18 -7 11 -15 13 -15 13 0 0 9 -5 16 -11 16 -6 0 3 8 19 19 21
12 32 15 37 7 6 -8 8 -8 8 1 0 14 23 11 42 -5 24 -19 40 27 21 59 -11 18 -13
19 -9 4 6 -20 6 -20 -9 -1 -10 13 -15 15 -15 6z m22 -24 c14 -6 15 -11 5 -21
-14 -16 -30 -8 -23 11 3 8 0 11 -9 7 -8 -3 -13 -9 -10 -13 3 -5 -3 -7 -12 -5
-10 1 -25 -3 -33 -9 -8 -6 -7 -1 4 11 10 13 23 20 27 17 5 -3 9 -1 9 5 0 10
14 9 42 -3z"/>
<path d="M4746 6384 c-9 -8 -16 -18 -16 -21 0 -4 3 -3 7 0 3 4 12 2 18 -3 9
-7 16 -5 25 5 8 9 9 15 4 14 -21 -4 -28 2 -14 11 9 6 10 10 3 10 -6 0 -19 -7
-27 -16z"/>
<path d="M3776 6359 c3 -5 14 -9 25 -9 11 0 17 -5 14 -10 -4 -6 -10 -8 -14 -5
-5 2 -16 -4 -26 -15 -10 -11 -22 -17 -28 -13 -6 3 -7 1 -3 -5 4 -7 2 -12 -3
-12 -10 0 -16 21 -12 43 1 4 -7 3 -18 -2 -10 -6 -22 -7 -27 -3 -5 4 -3 0 4 -8
17 -20 15 -25 -13 -26 -14 -1 -25 2 -25 7 0 5 -5 9 -11 9 -8 0 -8 -5 1 -15 9
-11 9 -15 1 -15 -6 0 -14 6 -17 14 -8 22 -43 16 -39 -6 4 -20 -3 -22 -25 -8
-10 6 -11 10 -2 10 6 0 12 5 12 12 0 6 -3 8 -7 5 -3 -4 -13 -1 -22 6 -14 10
-14 10 -4 -4 9 -11 9 -19 2 -26 -8 -8 -7 -13 3 -19 19 -12 68 -13 68 -2 0 6 8
4 17 -3 9 -8 14 -9 10 -3 -9 15 17 26 31 12 6 -6 12 -6 17 2 5 8 14 5 30 -10
l23 -21 6 25 c3 14 12 25 19 23 6 -1 11 4 9 12 -2 8 3 11 12 8 10 -4 13 -1 10
8 -4 10 2 13 25 10 17 -2 31 1 31 6 0 6 -4 8 -9 5 -5 -3 -11 0 -14 8 -3 7 -17
16 -31 18 -14 3 -23 1 -20 -3z m-49 -64 c11 -26 0 -45 -13 -23 -10 15 -13 48
-5 48 3 0 11 -11 18 -25z m-106 -12 c7 -10 9 -15 5 -11 -5 4 -15 3 -22 -3 -11
-9 -13 2 -5 29 2 6 10 1 22 -15z m69 3 c0 -3 -4 -8 -10 -11 -5 -3 -10 -1 -10
4 0 6 5 11 10 11 6 0 10 -2 10 -4z"/>
<path d="M3835 6360 c3 -5 8 -10 11 -10 2 0 4 5 4 10 0 6 -5 10 -11 10 -5 0
-7 -4 -4 -10z"/>
<path d="M4930 6360 c-9 -6 -10 -10 -3 -10 6 0 15 5 18 10 8 12 4 12 -15 0z"/>
<path d="M3750 6351 c13 -10 13 -12 0 -22 -13 -9 -13 -10 0 -6 8 2 15 10 15
17 0 7 -7 15 -15 17 -13 4 -13 3 0 -6z"/>
<path d="M4989 6348 c0 -2 -2 -11 -4 -21 -3 -15 -1 -16 11 -6 7 6 11 15 8 20
-5 9 -13 12 -15 7z"/>
<path d="M3655 6320 c3 -5 8 -10 11 -10 2 0 4 5 4 10 0 6 -5 10 -11 10 -5 0
-7 -4 -4 -10z"/>
<path d="M5152 6272 c8 -9 14 -10 16 -3 2 6 9 8 15 4 7 -3 9 -2 4 2 -4 5 -16
9 -27 10 -16 1 -17 -1 -8 -13z"/>
<path d="M5195 6260 c-3 -5 -1 -10 4 -10 6 0 11 5 11 10 0 6 -2 10 -4 10 -3 0
-8 -4 -11 -10z"/>
<path d="M5414 6188 c-4 -7 -3 -8 4 -4 7 4 12 1 12 -8 0 -9 5 -16 10 -16 7 0
7 6 0 20 -12 23 -16 24 -26 8z"/>
<path d="M2943 6128 c-4 -7 -8 -19 -9 -26 -2 -10 1 -10 12 -1 7 6 12 15 9 19
-3 5 1 11 7 13 9 4 10 6 1 6 -6 1 -15 -5 -20 -11z"/>
<path d="M6705 6129 c-4 -6 -5 -12 -2 -15 2 -3 7 2 10 11 7 17 1 20 -8 4z"/>
<path d="M2939 6039 c-8 -16 -8 -24 2 -33 9 -8 10 -8 5 1 -4 7 2 17 14 23 11
6 18 15 15 21 -10 15 -24 10 -36 -12z"/>
<path d="M2863 5985 c1 -5 -4 -9 -10 -10 -7 0 -13 -4 -12 -9 0 -5 -4 -12 -11
-16 -8 -5 -7 -10 3 -19 12 -9 15 -8 13 5 0 10 14 28 31 40 31 20 31 22 9 20
-13 0 -24 -5 -23 -11z"/>
<path d="M6360 5156 c0 -2 8 -10 18 -17 15 -13 16 -12 3 4 -13 16 -21 21 -21
13z"/>
<path d="M6458 4963 c7 -3 16 -2 19 1 4 3 -2 6 -13 5 -11 0 -14 -3 -6 -6z"/>
<path d="M6473 4903 c-5 -10 -8 -25 -8 -34 0 -21 25 -50 35 -44 5 3 11 1 15
-5 4 -6 11 -8 16 -5 14 9 10 -7 -6 -29 -20 -26 -19 -38 3 -34 11 2 17 -3 16
-14 -1 -14 2 -15 17 -8 23 13 34 30 19 30 -7 0 -9 7 -6 16 3 8 2 12 -4 9 -6
-3 -10 -2 -10 4 0 5 6 12 13 14 7 3 5 6 -5 6 -20 1 -25 21 -5 21 9 0 9 2 -1 8
-7 5 -14 23 -15 40 -1 18 -6 27 -11 22 -5 -5 -18 -2 -32 6 -21 14 -23 14 -31
-3z m37 -33 c0 -7 7 -9 16 -6 9 3 12 2 9 -5 -4 -6 -14 -8 -22 -5 -8 3 -11 1
-8 -4 3 -6 16 -10 28 -10 17 0 19 -2 7 -10 -9 -5 -19 -5 -26 0 -6 6 -13 8 -16
5 -3 -3 -11 2 -19 12 -9 11 -10 14 -1 9 8 -5 12 0 12 14 0 12 -4 18 -10 15 -6
-3 -7 1 -4 9 5 13 8 13 20 1 8 -7 14 -19 14 -25z m40 -94 c-1 -5 4 -13 12 -17
9 -6 9 -9 1 -9 -6 0 -15 5 -18 10 -4 6 -11 8 -16 5 -5 -3 -6 1 -3 10 7 16 27
17 24 1z"/>
<path d="M7826 4817 c4 -25 -6 -48 -17 -42 -8 6 -4 -34 6 -43 3 -3 11 0 18 8
8 9 8 11 0 6 -6 -3 -14 -2 -18 4 -3 5 -1 10 4 10 6 0 11 7 11 16 0 8 4 13 8
10 5 -3 9 1 9 9 0 8 -4 15 -8 15 -4 0 -9 6 -12 13 -2 6 -3 4 -1 -6z"/>
<path d="M7781 4727 c-6 -8 -8 -17 -4 -20 3 -4 -2 -9 -11 -13 -9 -3 -16 -15
-16 -26 0 -10 -4 -16 -10 -13 -5 3 -10 1 -10 -5 0 -6 -3 -9 -7 -7 -5 2 -18 -7
-29 -19 -20 -21 -21 -23 -3 -21 10 1 19 7 19 14 0 7 5 13 10 13 7 0 7 -6 0
-20 -6 -11 -15 -19 -21 -17 -6 1 -13 -6 -14 -15 -4 -24 12 -23 25 2 6 11 15
18 19 15 5 -2 8 3 7 12 0 10 4 18 11 18 7 0 18 7 25 15 11 12 11 12 -4 1 -11
-8 -18 -9 -18 -3 0 6 5 14 10 17 6 4 8 10 5 15 -3 5 0 12 6 16 8 4 9 3 5 -4
-4 -7 -2 -12 4 -12 7 0 10 6 7 13 -2 6 5 17 17 24 18 11 19 12 3 13 -10 0 -15
5 -12 10 9 15 -1 12 -14 -3z"/>
<path d="M6593 4695 c0 -8 4 -12 9 -9 4 3 8 9 8 15 0 5 -4 9 -8 9 -5 0 -9 -7
-9 -15z"/>
<path d="M6573 4657 c3 -7 11 -10 18 -8 8 2 20 4 27 4 20 1 4 10 -24 13 -16 2
-24 -1 -21 -9z"/>
<path d="M6572 4627 l-23 -13 20 -18 c11 -10 18 -22 16 -27 -3 -4 -1 -10 4
-13 5 -4 12 -2 16 4 4 6 10 8 14 6 4 -3 8 1 8 9 0 11 -4 12 -13 4 -7 -6 -14
-6 -18 -1 -3 6 0 12 8 15 9 4 12 14 9 26 -6 24 -10 25 -41 8z m18 -28 c0 -6
-4 -7 -10 -4 -5 3 -10 11 -10 16 0 6 5 7 10 4 6 -3 10 -11 10 -16z"/>
<path d="M7644 4578 c-4 -7 -3 -8 4 -4 7 4 12 2 12 -4 0 -6 5 -8 10 -5 11 7 4
25 -10 25 -5 0 -12 -5 -16 -12z"/>
<path d="M7628 4541 c5 -14 4 -14 -13 -1 -10 8 -16 10 -12 3 5 -7 -1 -18 -13
-25 -11 -7 -20 -18 -20 -25 0 -7 -6 -10 -14 -7 -22 9 -29 -14 -7 -25 29 -16
44 -13 37 5 -6 15 -4 15 11 3 11 -9 14 -10 9 -1 -4 7 -2 12 4 12 6 0 8 5 5 10
-4 6 -11 7 -17 4 -7 -4 -8 -2 -4 4 5 9 13 9 29 0 20 -10 21 -10 9 5 -12 14
-11 16 5 13 14 -2 61 30 51 35 -2 1 -17 2 -35 4 -25 2 -30 -1 -25 -14z"/>
<path d="M7535 4253 c-7 -20 -6 -23 6 -23 5 0 7 5 4 10 -11 18 11 11 29 -9 10
-10 25 -18 34 -16 9 1 26 -5 36 -14 11 -9 16 -11 13 -4 -4 6 -3 15 3 18 8 5 7
11 -1 21 -8 10 -15 11 -24 4 -9 -8 -14 -7 -17 2 -4 10 -9 10 -23 -2 -17 -14
-18 -13 -12 2 4 13 2 15 -10 11 -10 -4 -14 -2 -10 4 3 5 0 10 -8 10 -8 0 -17
-7 -20 -14z m79 -21 c3 -5 -1 -9 -9 -9 -8 0 -12 4 -9 9 3 4 7 8 9 8 2 0 6 -4
9 -8z m40 -13 c-3 -5 -10 -7 -15 -3 -5 3 -7 10 -3 15 3 5 10 7 15 3 5 -3 7
-10 3 -15z"/>
<path d="M7690 4220 c0 -5 5 -10 11 -10 5 0 7 -4 4 -10 -3 -5 0 -7 8 -4 8 3
18 1 21 -5 4 -6 14 -7 24 -4 15 6 15 5 3 -10 -9 -11 -10 -17 -2 -18 6 -1 15
-2 21 -3 5 0 15 -7 22 -13 6 -7 20 -13 31 -13 12 0 16 -4 11 -12 -5 -8 0 -7
11 2 17 14 18 13 12 -3 -4 -11 -1 -20 8 -23 8 -4 12 -10 9 -15 -3 -5 3 -6 12
-2 13 5 16 3 11 -10 -4 -10 -2 -16 5 -14 6 1 13 -4 15 -10 3 -7 -1 -13 -9 -13
-10 0 -10 -2 1 -9 16 -10 22 -81 7 -81 -16 0 0 -10 24 -15 18 -3 20 -2 10 10
-10 12 -10 15 1 15 8 0 5 6 -7 15 -19 14 -18 14 3 10 12 -2 20 1 19 8 -1 7 -6
13 -11 14 -6 0 -9 -3 -7 -9 1 -5 -2 -6 -8 -3 -8 5 -6 15 5 32 16 23 15 25 -4
30 -24 6 -26 14 -8 32 6 7 8 11 2 10 -18 -4 -45 13 -38 24 3 6 1 7 -6 3 -6 -4
-9 -12 -6 -17 3 -5 -1 -6 -10 -2 -13 4 -14 8 -4 13 10 7 9 11 -2 23 -22 21
-52 35 -71 32 -10 -2 -18 3 -18 10 0 7 -15 18 -32 25 -18 6 -41 16 -50 21 -12
6 -18 6 -18 -1z m164 -81 c8 -9 6 -9 -10 -1 -12 6 -24 9 -27 6 -3 -3 -8 -1
-11 5 -9 14 34 5 48 -10z m101 -109 c-3 -5 -12 -10 -18 -10 -7 0 -6 4 3 10 19
12 23 12 15 0z"/>
<path d="M7930 3895 c-7 -8 -16 -12 -21 -9 -5 3 -9 2 -8 -3 4 -21 -2 -34 -13
-27 -7 4 -8 3 -4 -5 9 -13 -12 -44 -24 -36 -4 3 -11 -2 -14 -11 -3 -8 -10 -12
-16 -9 -6 3 -7 -1 -4 -9 6 -16 -10 -23 -19 -8 -2 4 -2 1 -1 -5 2 -7 -1 -13 -7
-13 -5 0 -4 -6 3 -13 10 -11 15 -11 29 1 10 9 15 22 11 31 -5 13 -3 14 10 4
17 -15 29 -7 21 13 -4 10 0 13 13 8 16 -5 16 -4 4 5 -13 10 -8 15 12 12 4 0 4
7 1 16 -5 12 -3 14 7 8 9 -6 11 -4 5 4 -4 7 2 22 16 37 12 13 20 24 17 24 -3
0 -11 -7 -18 -15z"/>
<path d="M6765 3230 c-3 -6 1 -7 9 -4 18 7 21 14 7 14 -6 0 -13 -4 -16 -10z"/>
<path d="M2170 2700 c0 -5 5 -10 11 -10 5 0 7 5 4 10 -3 6 -8 10 -11 10 -2 0
-4 -4 -4 -10z"/>
<path d="M2154 2682 c3 -6 2 -13 -4 -17 -13 -8 -13 -35 0 -35 5 0 7 8 3 18 -5
14 -3 14 10 -3 19 -24 12 -51 -9 -34 -12 10 -13 9 -8 -5 4 -11 13 -15 25 -11
12 4 21 -1 29 -15 13 -23 30 -27 30 -5 0 8 5 15 12 15 6 0 3 6 -7 14 -11 8
-25 12 -32 9 -7 -3 -13 2 -13 10 0 8 -7 20 -15 27 -8 7 -13 16 -10 20 3 5 0
12 -6 16 -7 4 -9 3 -5 -4z m71 -81 c3 -5 2 -12 -3 -15 -5 -3 -9 1 -9 9 0 17 3
19 12 6z"/>
<path d="M2250 2492 c-14 -6 -14 -9 2 -24 10 -10 20 -13 23 -8 4 6 1 10 -5 10
-7 0 -10 7 -6 15 3 8 4 15 3 14 -1 0 -9 -3 -17 -7z"/>
<path d="M212 2358 c-13 -39 -33 -80 -45 -91 -12 -10 -35 -30 -51 -43 -16 -14
-27 -26 -25 -28 2 -2 22 -6 44 -9 49 -6 75 -16 75 -29 0 -5 5 -6 10 -3 5 3 10
0 10 -8 0 -8 7 -20 15 -27 8 -7 13 -16 10 -20 -3 -5 0 -10 5 -12 6 -2 12 -13
13 -25 2 -30 22 -37 25 -9 10 76 24 116 56 151 18 19 37 35 42 35 6 0 19 6 29
14 17 12 14 15 -39 27 -68 15 -97 39 -121 103 -10 25 -21 46 -24 46 -4 0 -17
-32 -29 -72z"/>
<path d="M5969 2393 c-13 -16 -12 -17 4 -4 9 7 17 15 17 17 0 8 -8 3 -21 -13z"/>
<path d="M5873 2345 c0 -8 5 -15 10 -15 5 0 -2 -9 -17 -21 -20 -16 -30 -18
-40 -10 -10 9 -19 6 -37 -9 -13 -10 -18 -19 -11 -20 9 0 8 -6 -3 -24 -11 -16
-13 -26 -6 -31 10 -5 15 7 12 27 0 4 7 4 16 1 11 -4 13 -8 5 -11 -7 -2 -12 -7
-12 -12 0 -13 31 -5 44 11 18 23 36 21 36 -3 0 -19 -2 -20 -11 -8 -8 13 -12
12 -26 -7 -12 -18 -19 -20 -34 -12 -10 5 -19 7 -19 5 0 -3 14 -13 30 -21 19
-10 28 -20 23 -28 -4 -7 0 -7 10 2 21 17 22 35 1 27 -8 -3 -12 -2 -9 4 3 6 15
10 26 10 10 0 19 3 20 8 4 41 10 66 19 77 8 10 7 21 -5 44 -17 35 -22 38 -22
16z m27 -45 c0 -6 -6 -13 -14 -16 -8 -3 -14 -11 -12 -17 1 -7 1 -8 -2 -3 -2 4
-8 2 -13 -5 -6 -10 -9 -11 -9 -1 0 6 -5 12 -11 12 -5 0 -8 -4 -5 -9 3 -4 -2
-17 -10 -27 -9 -10 -13 -13 -9 -6 3 6 0 15 -8 18 -16 6 -17 20 -3 42 6 10 11
10 22 1 12 -10 18 -9 32 4 18 19 42 22 42 7z"/>
<path d="M5859 2283 c-13 -17 -13 -17 6 -3 11 8 22 16 24 17 2 2 0 3 -6 3 -6
0 -17 -8 -24 -17z"/>
<path d="M5806 2282 c-2 -4 -1 -14 3 -21 6 -10 10 -9 14 3 6 16 -8 32 -17 18z"/>
<path d="M2464 2338 c4 -20 26 -21 26 -1 0 14 -2 15 -9 4 -6 -9 -10 -10 -14
-2 -4 8 -5 8 -3 -1z"/>
<path d="M5830 2310 c0 -5 5 -10 10 -10 6 0 10 5 10 10 0 6 -4 10 -10 10 -5 0
-10 -4 -10 -10z"/>
<path d="M823 2263 c4 -6 -3 -13 -14 -16 -16 -4 -20 -11 -16 -26 3 -12 1 -24
-4 -27 -5 -3 -7 -9 -4 -14 3 -5 1 -11 -5 -15 -5 -3 -10 -17 -10 -30 0 -13 -5
-27 -10 -30 -6 -4 -8 -11 -5 -16 4 -5 3 -15 -2 -21 -4 -7 -8 -15 -8 -18 -3
-20 -18 -50 -26 -50 -5 0 -8 -3 -7 -7 3 -15 -14 -43 -23 -37 -5 3 -12 -2 -15
-10 -3 -9 -11 -16 -18 -16 -6 0 -29 -18 -50 -40 -22 -22 -43 -40 -47 -40 -5 0
-13 -9 -19 -20 -9 -17 -8 -20 7 -17 10 1 24 7 32 11 9 6 12 5 8 -1 -4 -6 14
-11 46 -12 29 -1 64 -4 78 -7 13 -3 32 -7 42 -7 9 -1 17 -7 17 -15 0 -7 5 -10
10 -7 6 3 10 1 10 -5 0 -7 7 -10 15 -6 9 3 19 -3 25 -17 11 -22 11 -22 -6 -2
-10 12 -15 14 -12 5 3 -8 14 -20 26 -26 12 -6 19 -14 15 -17 -3 -4 0 -7 7 -7
7 0 10 -3 7 -7 -4 -3 1 -12 11 -20 11 -10 12 -12 2 -8 -10 4 -10 2 2 -8 16
-13 43 -65 40 -78 -1 -4 8 -15 18 -24 11 -10 20 -16 21 -14 0 2 2 24 4 49 2
25 6 56 9 70 3 14 9 40 12 58 3 17 10 32 15 32 5 0 8 3 8 8 -6 36 6 61 51 103
41 41 143 105 160 102 3 -1 11 5 18 13 10 11 3 15 -40 21 -29 4 -57 6 -63 4
-15 -4 -145 32 -145 41 0 4 -7 8 -15 8 -8 0 -19 9 -25 19 -5 11 -16 26 -24 34
-18 17 -65 95 -73 120 -3 9 -10 17 -15 17 -5 0 -7 4 -3 9 3 5 0 13 -6 17 -7 4
-9 3 -6 -3z m128 -700 c13 -16 12 -17 -3 -4 -10 7 -18 15 -18 17 0 8 8 3 21
-13z"/>
<path d="M2659 2244 c-1 -5 -1 -13 0 -18 1 -5 -4 -13 -11 -18 -9 -7 -7 -8 9
-5 14 3 20 1 17 -7 -3 -7 -17 -11 -34 -8 -17 2 -27 9 -23 15 4 6 1 7 -6 2 -9
-5 -7 -12 8 -26 28 -27 74 -44 79 -29 3 7 9 7 20 -2 10 -8 13 -9 9 -1 -4 6 -3
14 2 17 11 7 21 -17 21 -50 0 -17 6 -24 20 -24 11 0 20 3 21 8 0 4 2 15 4 24
2 9 -4 23 -13 30 -10 8 -13 9 -9 1 4 -6 3 -14 -2 -17 -5 -3 -11 3 -14 14 -3
11 0 23 5 27 6 3 8 1 5 -5 -5 -6 1 -8 13 -5 12 3 20 2 19 -3 -1 -5 0 -12 1
-16 1 -5 3 -17 4 -28 0 -11 5 -19 11 -17 11 2 15 47 4 47 -4 0 -11 9 -14 21
-4 12 -13 18 -20 15 -8 -3 -18 1 -24 8 -6 8 -25 12 -41 11 -19 -2 -30 2 -30
10 0 15 -29 42 -31 29z m97 -56 c3 -4 -2 -5 -12 -4 -10 2 -27 -5 -38 -15 -22
-21 -38 -16 -29 8 4 11 8 13 11 5 3 -9 7 -8 18 2 14 14 38 16 50 4z"/>
<path d="M5736 2225 c-10 -13 -22 -22 -26 -20 -4 3 -10 -1 -13 -8 -8 -21 56
-56 68 -37 2 4 17 5 32 3 28 -5 28 -5 -9 26 -23 20 -35 37 -31 46 8 22 0 18
-21 -10z m34 -51 c-12 -13 -27 -13 -48 0 -11 6 -10 12 4 27 16 18 18 18 36 3
13 -12 15 -21 8 -30z"/>
<path d="M5730 2195 c-7 -8 -11 -15 -9 -16 31 -6 40 -6 44 1 3 4 -1 13 -9 19
-10 9 -16 8 -26 -4z m24 -3 c3 -5 -1 -9 -9 -9 -8 0 -12 4 -9 9 3 4 7 8 9 8 2
0 6 -4 9 -8z"/>
<path d="M5523 2055 c0 -6 8 -11 17 -11 9 0 17 5 17 11 0 6 -8 11 -17 11 -9 0
-17 -5 -17 -11z"/>
<path d="M5424 1998 c-3 -5 -3 -12 0 -15 3 -4 6 -1 6 7 0 10 3 10 14 1 10 -8
16 -9 21 -1 3 5 5 10 3 11 -26 6 -39 5 -44 -3z"/>
<path d="M5535 1980 c3 -5 8 -10 11 -10 2 0 4 5 4 10 0 6 -5 10 -11 10 -5 0
-7 -4 -4 -10z"/>
<path d="M1467 1943 c-4 -3 -7 -17 -7 -30 0 -12 -4 -23 -8 -23 -4 0 -9 -11
-10 -25 -3 -44 -43 -113 -80 -142 -51 -38 -76 -62 -71 -67 2 -2 27 -6 54 -9
54 -6 105 -26 105 -42 0 -6 9 -17 20 -25 11 -8 20 -22 20 -32 0 -10 4 -18 9
-18 5 0 17 -23 26 -51 9 -28 19 -49 21 -46 2 2 6 23 9 48 3 24 10 58 14 76 5
17 6 34 3 37 -3 3 0 6 7 6 7 0 10 4 6 9 -9 15 52 77 108 110 38 23 46 31 30
31 -12 0 -25 5 -28 10 -4 6 -11 8 -16 4 -12 -7 -78 14 -106 35 -12 9 -36 46
-54 84 -32 66 -39 74 -52 60z"/>
<path d="M3182 1914 c-11 -12 -10 -18 10 -34 13 -11 18 -19 13 -20 -6 0 -17 6
-25 13 -12 10 -12 9 -1 -6 14 -18 41 -19 53 -2 5 7 14 6 28 -2 25 -16 27 -16
34 3 5 14 4 15 -8 5 -11 -9 -16 -9 -21 -1 -4 7 -17 9 -28 6 -22 -5 -47 9 -47
27 0 7 4 7 12 -1 7 -7 19 -12 27 -12 11 0 10 4 -4 20 -21 24 -26 24 -43 4z"/>
<path d="M3136 1895 c-3 -8 0 -17 6 -21 6 -4 8 -3 4 4 -3 5 -1 12 6 14 8 3 9
6 1 11 -6 4 -13 0 -17 -8z"/>
<path d="M3236 1842 c-2 -4 4 -8 14 -8 10 0 16 4 14 8 -3 4 -9 8 -14 8 -5 0
-11 -4 -14 -8z"/>
<path d="M3358 1793 c7 -3 16 -2 19 1 4 3 -2 6 -13 5 -11 0 -14 -3 -6 -6z"/>
<path d="M3390 1796 c0 -2 8 -10 18 -17 15 -13 16 -12 3 4 -13 16 -21 21 -21
13z"/>
<path d="M4715 1741 c-11 -5 -23 -7 -27 -4 -4 2 -5 -4 -1 -13 4 -12 3 -15 -5
-10 -8 5 -10 2 -5 -10 5 -14 7 -14 17 4 8 14 16 18 25 13 11 -7 11 -9 0 -13
-10 -3 -9 -6 3 -11 13 -4 16 -1 12 18 -3 20 -1 23 12 18 12 -4 15 -3 10 5 -8
14 -13 14 -41 3z"/>
<path d="M4425 1730 c-3 -5 -1 -10 4 -10 6 0 11 5 11 10 0 6 -2 10 -4 10 -3 0
-8 -4 -11 -10z"/>
<path d="M4547 1729 c7 -7 15 -10 18 -7 3 3 -2 9 -12 12 -14 6 -15 5 -6 -5z"/>
<path d="M4750 1698 c0 -3 9 -6 20 -5 11 1 20 5 20 9 0 3 -9 6 -20 5 -11 -1
-20 -5 -20 -9z"/>
<path d="M4477 1689 c7 -7 15 -10 18 -7 3 3 -2 9 -12 12 -14 6 -15 5 -6 -5z"/>
<path d="M3874 1679 c-3 -6 -1 -16 5 -22 9 -9 10 -7 5 7 -6 16 -4 18 10 13 10
-4 15 -3 11 3 -8 13 -22 13 -31 -1z"/>
<path d="M4620 1679 c0 -5 5 -7 12 -3 7 5 9 2 6 -8 -4 -8 0 -15 7 -15 10 0 11
5 4 19 -11 20 -29 24 -29 7z"/>
<path d="M4700 1682 c0 -5 7 -9 15 -9 8 0 12 4 9 9 -3 4 -9 8 -15 8 -5 0 -9
-4 -9 -8z"/>
<path d="M4056 1667 c3 -10 9 -15 12 -12 3 3 0 11 -7 18 -10 9 -11 8 -5 -6z"/>
<path d="M3960 1660 c-8 -5 -10 -10 -5 -10 6 0 17 5 25 10 8 5 11 10 5 10 -5
0 -17 -5 -25 -10z"/>
<path d="M4236 1662 c-3 -5 1 -9 9 -9 8 0 12 4 9 9 -3 4 -7 8 -9 8 -2 0 -6 -4
-9 -8z"/>
</g>
</svg>
